<mxfile host="app.diagrams.net" modified="2023-11-12T02:57:46.106Z" agent="Mozilla/5.0 (Macintosh; Intel Mac OS X 10_15_7) AppleWebKit/605.1.15 (KHTML, like Gecko) Version/16.5.1 Safari/605.1.15" etag="w54Py4pZ7n5Vx-R1SBTF" version="22.1.0" type="github" pages="2">
  <diagram id="C5RBs43oDa-KdzZeNtuy" name="Page-1">
    <mxGraphModel dx="4216" dy="1045" grid="0" gridSize="10" guides="1" tooltips="1" connect="1" arrows="1" fold="1" page="1" pageScale="1" pageWidth="827" pageHeight="1169" math="0" shadow="0">
      <root>
        <mxCell id="WIyWlLk6GJQsqaUBKTNV-0" />
        <mxCell id="WIyWlLk6GJQsqaUBKTNV-1" parent="WIyWlLk6GJQsqaUBKTNV-0" />
        <mxCell id="zkfFHV4jXpPFQw0GAbJ--0" value="User ??" style="swimlane;fontStyle=0;align=center;verticalAlign=top;childLayout=stackLayout;horizontal=1;startSize=26;horizontalStack=0;resizeParent=1;resizeLast=0;collapsible=1;marginBottom=0;rounded=0;shadow=0;strokeWidth=1;" parent="WIyWlLk6GJQsqaUBKTNV-1" vertex="1">
          <mxGeometry x="40" y="40" width="230" height="288" as="geometry">
            <mxRectangle x="230" y="140" width="160" height="26" as="alternateBounds" />
          </mxGeometry>
        </mxCell>
        <mxCell id="grXvKpiBtCGuTxDAUHIj-212" value="Name : String" style="text;html=1;strokeColor=none;fillColor=none;align=left;verticalAlign=middle;whiteSpace=wrap;rounded=0;" vertex="1" parent="zkfFHV4jXpPFQw0GAbJ--0">
          <mxGeometry y="26" width="230" height="30" as="geometry" />
        </mxCell>
        <mxCell id="zkfFHV4jXpPFQw0GAbJ--2" value="MobileNumber : int" style="text;align=left;verticalAlign=top;spacingLeft=4;spacingRight=4;overflow=hidden;rotatable=0;points=[[0,0.5],[1,0.5]];portConstraint=eastwest;rounded=0;shadow=0;html=0;" parent="zkfFHV4jXpPFQw0GAbJ--0" vertex="1">
          <mxGeometry y="56" width="230" height="26" as="geometry" />
        </mxCell>
        <mxCell id="grXvKpiBtCGuTxDAUHIj-240" value="accounts : Account []" style="text;html=1;strokeColor=none;fillColor=none;align=left;verticalAlign=middle;whiteSpace=wrap;rounded=0;" vertex="1" parent="zkfFHV4jXpPFQw0GAbJ--0">
          <mxGeometry y="82" width="230" height="30" as="geometry" />
        </mxCell>
        <mxCell id="zkfFHV4jXpPFQw0GAbJ--1" value="- UserName : String" style="text;align=left;verticalAlign=middle;spacingLeft=4;spacingRight=4;overflow=hidden;rotatable=0;points=[[0,0.5],[1,0.5]];portConstraint=eastwest;" parent="zkfFHV4jXpPFQw0GAbJ--0" vertex="1">
          <mxGeometry y="112" width="230" height="26" as="geometry" />
        </mxCell>
        <mxCell id="grXvKpiBtCGuTxDAUHIj-208" value="Password : String" style="text;html=1;strokeColor=none;fillColor=none;align=left;verticalAlign=middle;whiteSpace=wrap;rounded=0;" vertex="1" parent="zkfFHV4jXpPFQw0GAbJ--0">
          <mxGeometry y="138" width="230" height="30" as="geometry" />
        </mxCell>
        <mxCell id="grXvKpiBtCGuTxDAUHIj-1" value="void setName(String Name)" style="text;html=1;strokeColor=none;fillColor=none;align=left;verticalAlign=middle;whiteSpace=wrap;rounded=0;" vertex="1" parent="zkfFHV4jXpPFQw0GAbJ--0">
          <mxGeometry y="168" width="230" height="30" as="geometry" />
        </mxCell>
        <mxCell id="grXvKpiBtCGuTxDAUHIj-2" value="String getName()" style="text;html=1;strokeColor=none;fillColor=none;align=left;verticalAlign=middle;whiteSpace=wrap;rounded=0;" vertex="1" parent="zkfFHV4jXpPFQw0GAbJ--0">
          <mxGeometry y="198" width="230" height="30" as="geometry" />
        </mxCell>
        <mxCell id="grXvKpiBtCGuTxDAUHIj-4" value="void setPhoneNumber(int PhoneNumber)" style="text;html=1;strokeColor=none;fillColor=none;align=left;verticalAlign=middle;whiteSpace=wrap;rounded=0;" vertex="1" parent="zkfFHV4jXpPFQw0GAbJ--0">
          <mxGeometry y="228" width="230" height="30" as="geometry" />
        </mxCell>
        <mxCell id="grXvKpiBtCGuTxDAUHIj-3" value="int getPhoneNumber()" style="text;html=1;strokeColor=none;fillColor=none;align=left;verticalAlign=middle;whiteSpace=wrap;rounded=0;" vertex="1" parent="zkfFHV4jXpPFQw0GAbJ--0">
          <mxGeometry y="258" width="230" height="30" as="geometry" />
        </mxCell>
        <mxCell id="zkfFHV4jXpPFQw0GAbJ--6" value="BankCustomer" style="swimlane;fontStyle=0;align=center;verticalAlign=top;childLayout=stackLayout;horizontal=1;startSize=26;horizontalStack=0;resizeParent=1;resizeLast=0;collapsible=1;marginBottom=0;rounded=0;shadow=0;strokeWidth=1;" parent="WIyWlLk6GJQsqaUBKTNV-1" vertex="1">
          <mxGeometry x="-140" y="360" width="300" height="206" as="geometry">
            <mxRectangle x="130" y="380" width="160" height="26" as="alternateBounds" />
          </mxGeometry>
        </mxCell>
        <mxCell id="zkfFHV4jXpPFQw0GAbJ--9" value="" style="line;html=1;strokeWidth=1;align=left;verticalAlign=middle;spacingTop=-1;spacingLeft=3;spacingRight=3;rotatable=0;labelPosition=right;points=[];portConstraint=eastwest;" parent="zkfFHV4jXpPFQw0GAbJ--6" vertex="1">
          <mxGeometry y="26" width="300" height="8" as="geometry" />
        </mxCell>
        <mxCell id="grXvKpiBtCGuTxDAUHIj-12" value="void setBankAccount(int BankAccount)&amp;nbsp;" style="text;html=1;strokeColor=none;fillColor=none;align=left;verticalAlign=middle;whiteSpace=wrap;rounded=0;" vertex="1" parent="zkfFHV4jXpPFQw0GAbJ--6">
          <mxGeometry y="34" width="300" height="30" as="geometry" />
        </mxCell>
        <mxCell id="grXvKpiBtCGuTxDAUHIj-9" value="int getBankAccount()" style="text;html=1;strokeColor=none;fillColor=none;align=left;verticalAlign=middle;whiteSpace=wrap;rounded=0;" vertex="1" parent="zkfFHV4jXpPFQw0GAbJ--6">
          <mxGeometry y="64" width="300" height="30" as="geometry" />
        </mxCell>
        <mxCell id="grXvKpiBtCGuTxDAUHIj-10" value="void setAccountBalance(double AccountBalance)" style="text;html=1;strokeColor=none;fillColor=none;align=left;verticalAlign=middle;whiteSpace=wrap;rounded=0;" vertex="1" parent="zkfFHV4jXpPFQw0GAbJ--6">
          <mxGeometry y="94" width="300" height="30" as="geometry" />
        </mxCell>
        <mxCell id="grXvKpiBtCGuTxDAUHIj-11" value="double getAccountBalance()" style="text;html=1;strokeColor=none;fillColor=none;align=left;verticalAlign=middle;whiteSpace=wrap;rounded=0;" vertex="1" parent="zkfFHV4jXpPFQw0GAbJ--6">
          <mxGeometry y="124" width="300" height="30" as="geometry" />
        </mxCell>
        <mxCell id="zkfFHV4jXpPFQw0GAbJ--13" value="WalletUser ??" style="swimlane;fontStyle=0;align=center;verticalAlign=top;childLayout=stackLayout;horizontal=1;startSize=26;horizontalStack=0;resizeParent=1;resizeLast=0;collapsible=1;marginBottom=0;rounded=0;shadow=0;strokeWidth=1;" parent="WIyWlLk6GJQsqaUBKTNV-1" vertex="1">
          <mxGeometry x="230" y="360" width="260" height="120" as="geometry">
            <mxRectangle x="340" y="380" width="170" height="26" as="alternateBounds" />
          </mxGeometry>
        </mxCell>
        <mxCell id="zkfFHV4jXpPFQw0GAbJ--15" value="" style="line;html=1;strokeWidth=1;align=left;verticalAlign=middle;spacingTop=-1;spacingLeft=3;spacingRight=3;rotatable=0;labelPosition=right;points=[];portConstraint=eastwest;" parent="zkfFHV4jXpPFQw0GAbJ--13" vertex="1">
          <mxGeometry y="26" width="260" height="8" as="geometry" />
        </mxCell>
        <mxCell id="grXvKpiBtCGuTxDAUHIj-14" value="void setWalletBalance(double WalletBalance)" style="text;html=1;strokeColor=none;fillColor=none;align=left;verticalAlign=middle;whiteSpace=wrap;rounded=0;" vertex="1" parent="zkfFHV4jXpPFQw0GAbJ--13">
          <mxGeometry y="34" width="260" height="30" as="geometry" />
        </mxCell>
        <mxCell id="grXvKpiBtCGuTxDAUHIj-13" value="double getWalletBalance()" style="text;html=1;strokeColor=none;fillColor=none;align=left;verticalAlign=middle;whiteSpace=wrap;rounded=0;" vertex="1" parent="zkfFHV4jXpPFQw0GAbJ--13">
          <mxGeometry y="64" width="260" height="30" as="geometry" />
        </mxCell>
        <mxCell id="grXvKpiBtCGuTxDAUHIj-19" value="&lt;span style=&quot;font-weight: normal;&quot;&gt;BankAccountSignUp&lt;/span&gt;" style="swimlane;whiteSpace=wrap;html=1;" vertex="1" parent="WIyWlLk6GJQsqaUBKTNV-1">
          <mxGeometry x="-820" y="360" width="220" height="200" as="geometry" />
        </mxCell>
        <mxCell id="grXvKpiBtCGuTxDAUHIj-43" value="&lt;span style=&quot;border-color: var(--border-color); font-style: normal;&quot;&gt;+ bool authenticateUser(user)&lt;/span&gt;" style="text;html=1;strokeColor=none;fillColor=none;align=left;verticalAlign=middle;whiteSpace=wrap;rounded=0;fontStyle=2" vertex="1" parent="grXvKpiBtCGuTxDAUHIj-19">
          <mxGeometry x="10" y="41" width="330" height="30" as="geometry" />
        </mxCell>
        <mxCell id="grXvKpiBtCGuTxDAUHIj-20" value="&lt;span style=&quot;font-weight: normal;&quot;&gt;WalletSignUp&lt;/span&gt;" style="swimlane;whiteSpace=wrap;html=1;" vertex="1" parent="WIyWlLk6GJQsqaUBKTNV-1">
          <mxGeometry x="-490" y="360" width="200" height="200" as="geometry" />
        </mxCell>
        <mxCell id="grXvKpiBtCGuTxDAUHIj-44" value="+ bool authenticateUser(user)" style="text;html=1;strokeColor=none;fillColor=none;align=center;verticalAlign=middle;whiteSpace=wrap;rounded=0;" vertex="1" parent="grXvKpiBtCGuTxDAUHIj-20">
          <mxGeometry x="-84" y="41" width="320" height="30" as="geometry" />
        </mxCell>
        <mxCell id="grXvKpiBtCGuTxDAUHIj-21" value="&lt;span style=&quot;font-weight: normal;&quot;&gt;&lt;i&gt;SignUp&lt;/i&gt;&lt;/span&gt;" style="swimlane;whiteSpace=wrap;html=1;startSize=23;" vertex="1" parent="WIyWlLk6GJQsqaUBKTNV-1">
          <mxGeometry x="-710" y="80" width="330" height="200" as="geometry" />
        </mxCell>
        <mxCell id="grXvKpiBtCGuTxDAUHIj-23" value="&lt;i&gt;+ bool authenticateUser(user)&lt;/i&gt;" style="text;html=1;strokeColor=none;fillColor=none;align=left;verticalAlign=middle;whiteSpace=wrap;rounded=0;" vertex="1" parent="grXvKpiBtCGuTxDAUHIj-21">
          <mxGeometry x="10" y="30" width="300" height="30" as="geometry" />
        </mxCell>
        <mxCell id="grXvKpiBtCGuTxDAUHIj-24" value="void sendAndVerifyOTP(user) if user entered the mobile number connected to either bank account or waller then approve else decline" style="text;html=1;strokeColor=none;fillColor=none;align=center;verticalAlign=middle;whiteSpace=wrap;rounded=0;" vertex="1" parent="grXvKpiBtCGuTxDAUHIj-21">
          <mxGeometry x="2.5" y="80" width="307.5" height="30" as="geometry" />
        </mxCell>
        <mxCell id="grXvKpiBtCGuTxDAUHIj-27" value="bool enterUsername(Username)" style="text;html=1;strokeColor=none;fillColor=none;align=center;verticalAlign=middle;whiteSpace=wrap;rounded=0;" vertex="1" parent="grXvKpiBtCGuTxDAUHIj-21">
          <mxGeometry x="-10" y="120" width="210" height="30" as="geometry" />
        </mxCell>
        <mxCell id="grXvKpiBtCGuTxDAUHIj-28" value="&lt;i&gt;void register(User user, String Username, String Password)&lt;/i&gt;" style="text;html=1;strokeColor=none;fillColor=none;align=center;verticalAlign=middle;whiteSpace=wrap;rounded=0;" vertex="1" parent="grXvKpiBtCGuTxDAUHIj-21">
          <mxGeometry x="2.5" y="170" width="325" height="30" as="geometry" />
        </mxCell>
        <mxCell id="grXvKpiBtCGuTxDAUHIj-207" value="&lt;span style=&quot;caret-color: rgb(0, 0, 0); color: rgb(0, 0, 0); font-family: Helvetica; font-size: 12px; font-style: normal; font-variant-caps: normal; font-weight: 400; letter-spacing: normal; text-align: center; text-indent: 0px; text-transform: none; word-spacing: 0px; -webkit-text-stroke-width: 0px; background-color: rgb(251, 251, 251); text-decoration: none; float: none; display: inline !important;&quot;&gt;bool enterPassword(Password)&lt;/span&gt;" style="text;html=1;strokeColor=none;fillColor=none;align=center;verticalAlign=middle;whiteSpace=wrap;rounded=0;" vertex="1" parent="grXvKpiBtCGuTxDAUHIj-21">
          <mxGeometry x="-15" y="140" width="220" height="30" as="geometry" />
        </mxCell>
        <mxCell id="grXvKpiBtCGuTxDAUHIj-22" value="&amp;lt;&amp;lt;&lt;i&gt;Abstract&amp;gt;&amp;gt;&lt;/i&gt;" style="text;html=1;strokeColor=none;fillColor=none;align=center;verticalAlign=middle;whiteSpace=wrap;rounded=0;" vertex="1" parent="WIyWlLk6GJQsqaUBKTNV-1">
          <mxGeometry x="-575" y="30" width="60" height="30" as="geometry" />
        </mxCell>
        <mxCell id="grXvKpiBtCGuTxDAUHIj-32" value="Extends" style="endArrow=block;endSize=16;endFill=0;html=1;rounded=0;" edge="1" parent="WIyWlLk6GJQsqaUBKTNV-1">
          <mxGeometry width="160" relative="1" as="geometry">
            <mxPoint x="-560" y="340" as="sourcePoint" />
            <mxPoint x="-560" y="280" as="targetPoint" />
          </mxGeometry>
        </mxCell>
        <mxCell id="grXvKpiBtCGuTxDAUHIj-33" value="" style="endArrow=none;html=1;rounded=0;" edge="1" parent="WIyWlLk6GJQsqaUBKTNV-1">
          <mxGeometry width="50" height="50" relative="1" as="geometry">
            <mxPoint x="-710" y="340" as="sourcePoint" />
            <mxPoint x="-400" y="340" as="targetPoint" />
          </mxGeometry>
        </mxCell>
        <mxCell id="grXvKpiBtCGuTxDAUHIj-34" value="" style="endArrow=none;html=1;rounded=0;" edge="1" parent="WIyWlLk6GJQsqaUBKTNV-1">
          <mxGeometry width="50" height="50" relative="1" as="geometry">
            <mxPoint x="-710" y="360" as="sourcePoint" />
            <mxPoint x="-710" y="340" as="targetPoint" />
          </mxGeometry>
        </mxCell>
        <mxCell id="grXvKpiBtCGuTxDAUHIj-35" value="" style="endArrow=none;html=1;rounded=0;exitX=0.45;exitY=0.003;exitDx=0;exitDy=0;exitPerimeter=0;" edge="1" parent="WIyWlLk6GJQsqaUBKTNV-1" source="grXvKpiBtCGuTxDAUHIj-20">
          <mxGeometry width="50" height="50" relative="1" as="geometry">
            <mxPoint x="-500" y="360" as="sourcePoint" />
            <mxPoint x="-400" y="340" as="targetPoint" />
          </mxGeometry>
        </mxCell>
        <mxCell id="grXvKpiBtCGuTxDAUHIj-36" value="Extends" style="endArrow=block;endSize=16;endFill=0;html=1;rounded=0;" edge="1" parent="WIyWlLk6GJQsqaUBKTNV-1">
          <mxGeometry width="160" relative="1" as="geometry">
            <mxPoint x="-560" y="340" as="sourcePoint" />
            <mxPoint x="-560" y="280" as="targetPoint" />
          </mxGeometry>
        </mxCell>
        <mxCell id="grXvKpiBtCGuTxDAUHIj-37" value="Extends" style="endArrow=block;endSize=16;endFill=0;html=1;rounded=0;entryX=0.5;entryY=1;entryDx=0;entryDy=0;" edge="1" parent="WIyWlLk6GJQsqaUBKTNV-1" target="zkfFHV4jXpPFQw0GAbJ--0">
          <mxGeometry width="160" relative="1" as="geometry">
            <mxPoint x="155" y="340" as="sourcePoint" />
            <mxPoint x="170" y="290" as="targetPoint" />
            <mxPoint as="offset" />
          </mxGeometry>
        </mxCell>
        <mxCell id="grXvKpiBtCGuTxDAUHIj-38" value="" style="endArrow=none;html=1;rounded=0;" edge="1" parent="WIyWlLk6GJQsqaUBKTNV-1">
          <mxGeometry width="50" height="50" relative="1" as="geometry">
            <mxPoint y="340" as="sourcePoint" />
            <mxPoint x="360" y="340" as="targetPoint" />
          </mxGeometry>
        </mxCell>
        <mxCell id="grXvKpiBtCGuTxDAUHIj-39" value="" style="endArrow=none;html=1;rounded=0;" edge="1" parent="WIyWlLk6GJQsqaUBKTNV-1">
          <mxGeometry width="50" height="50" relative="1" as="geometry">
            <mxPoint y="361" as="sourcePoint" />
            <mxPoint y="340" as="targetPoint" />
          </mxGeometry>
        </mxCell>
        <mxCell id="grXvKpiBtCGuTxDAUHIj-40" value="" style="endArrow=none;html=1;rounded=0;exitX=0.5;exitY=0;exitDx=0;exitDy=0;" edge="1" parent="WIyWlLk6GJQsqaUBKTNV-1" source="zkfFHV4jXpPFQw0GAbJ--13">
          <mxGeometry width="50" height="50" relative="1" as="geometry">
            <mxPoint x="-10" y="360" as="sourcePoint" />
            <mxPoint x="360" y="340" as="targetPoint" />
          </mxGeometry>
        </mxCell>
        <mxCell id="grXvKpiBtCGuTxDAUHIj-45" value="&lt;b&gt;//template pattern&lt;/b&gt;" style="text;html=1;strokeColor=none;fillColor=none;align=center;verticalAlign=middle;whiteSpace=wrap;rounded=0;" vertex="1" parent="WIyWlLk6GJQsqaUBKTNV-1">
          <mxGeometry x="-443" y="30" width="60" height="30" as="geometry" />
        </mxCell>
        <mxCell id="grXvKpiBtCGuTxDAUHIj-46" value="&lt;span style=&quot;font-style: normal;&quot;&gt;WalletProvider ??&lt;/span&gt;" style="swimlane;whiteSpace=wrap;html=1;fontStyle=2;startSize=23;" vertex="1" parent="WIyWlLk6GJQsqaUBKTNV-1">
          <mxGeometry x="70" y="670" width="350" height="230" as="geometry" />
        </mxCell>
        <mxCell id="grXvKpiBtCGuTxDAUHIj-55" value="customers : User []. ??&amp;nbsp;" style="text;html=1;strokeColor=none;fillColor=none;align=left;verticalAlign=middle;whiteSpace=wrap;rounded=0;fontStyle=2" vertex="1" parent="grXvKpiBtCGuTxDAUHIj-46">
          <mxGeometry x="10" y="20" width="230" height="30" as="geometry" />
        </mxCell>
        <mxCell id="grXvKpiBtCGuTxDAUHIj-56" value="bool verifyMobileNumber(User obj, int MobileNumber)" style="text;html=1;strokeColor=none;fillColor=none;align=left;verticalAlign=middle;whiteSpace=wrap;rounded=0;" vertex="1" parent="grXvKpiBtCGuTxDAUHIj-46">
          <mxGeometry x="10" y="50" width="290" height="30" as="geometry" />
        </mxCell>
        <mxCell id="grXvKpiBtCGuTxDAUHIj-194" value="void onlinePayment(User obj, double amount)" style="text;html=1;strokeColor=none;fillColor=none;align=center;verticalAlign=middle;whiteSpace=wrap;rounded=0;" vertex="1" parent="grXvKpiBtCGuTxDAUHIj-46">
          <mxGeometry x="10" y="80" width="250" height="30" as="geometry" />
        </mxCell>
        <mxCell id="grXvKpiBtCGuTxDAUHIj-183" value="void setDataBase(User [] customers)" style="text;html=1;strokeColor=none;fillColor=none;align=center;verticalAlign=middle;whiteSpace=wrap;rounded=0;fontStyle=0" vertex="1" parent="grXvKpiBtCGuTxDAUHIj-46">
          <mxGeometry x="10" y="170" width="200" height="30" as="geometry" />
        </mxCell>
        <mxCell id="grXvKpiBtCGuTxDAUHIj-184" value="User [] getDataBase()&amp;nbsp;" style="text;html=1;strokeColor=none;fillColor=none;align=center;verticalAlign=middle;whiteSpace=wrap;rounded=0;" vertex="1" parent="grXvKpiBtCGuTxDAUHIj-46">
          <mxGeometry x="10" y="200" width="130" height="30" as="geometry" />
        </mxCell>
        <mxCell id="grXvKpiBtCGuTxDAUHIj-196" value="&lt;span style=&quot;caret-color: rgb(0, 0, 0); color: rgb(0, 0, 0); font-family: Helvetica; font-size: 12px; font-variant-caps: normal; font-weight: 400; letter-spacing: normal; text-align: left; text-indent: 0px; text-transform: none; word-spacing: 0px; -webkit-text-stroke-width: 0px; background-color: rgb(251, 251, 251); text-decoration: none; float: none; display: inline !important;&quot;&gt;boolean transferMoney(User obj1, User obj2, double money)&lt;/span&gt;" style="text;html=1;strokeColor=none;fillColor=none;align=center;verticalAlign=middle;whiteSpace=wrap;rounded=0;" vertex="1" parent="grXvKpiBtCGuTxDAUHIj-46">
          <mxGeometry x="10" y="110" width="330" height="30" as="geometry" />
        </mxCell>
        <mxCell id="grXvKpiBtCGuTxDAUHIj-195" value="void payBills(User obj, double amount)" style="text;html=1;strokeColor=none;fillColor=none;align=center;verticalAlign=middle;whiteSpace=wrap;rounded=0;" vertex="1" parent="grXvKpiBtCGuTxDAUHIj-46">
          <mxGeometry x="10" y="140" width="215" height="30" as="geometry" />
        </mxCell>
        <mxCell id="grXvKpiBtCGuTxDAUHIj-200" value="obj : DigitalWallet" style="text;html=1;strokeColor=none;fillColor=none;align=center;verticalAlign=middle;whiteSpace=wrap;rounded=0;" vertex="1" parent="grXvKpiBtCGuTxDAUHIj-46">
          <mxGeometry x="90" y="20" width="290" height="30" as="geometry" />
        </mxCell>
        <mxCell id="grXvKpiBtCGuTxDAUHIj-47" value="TeleCommunicationCompany" style="swimlane;whiteSpace=wrap;html=1;fontStyle=2" vertex="1" parent="WIyWlLk6GJQsqaUBKTNV-1">
          <mxGeometry x="-960" y="960" width="200" height="200" as="geometry" />
        </mxCell>
        <mxCell id="grXvKpiBtCGuTxDAUHIj-48" value="&lt;span style=&quot;font-weight: normal;&quot;&gt;&lt;i&gt;Bank&lt;/i&gt;&lt;/span&gt;" style="swimlane;whiteSpace=wrap;html=1;startSize=20;" vertex="1" parent="WIyWlLk6GJQsqaUBKTNV-1">
          <mxGeometry x="1160" y="960" width="210" height="240" as="geometry" />
        </mxCell>
        <mxCell id="grXvKpiBtCGuTxDAUHIj-165" value="bankAPI : BankAPI" style="text;html=1;strokeColor=none;fillColor=none;align=left;verticalAlign=middle;whiteSpace=wrap;rounded=0;fontStyle=2" vertex="1" parent="grXvKpiBtCGuTxDAUHIj-48">
          <mxGeometry x="10" y="20" width="160" height="30" as="geometry" />
        </mxCell>
        <mxCell id="grXvKpiBtCGuTxDAUHIj-174" value="Name : String" style="text;html=1;strokeColor=none;fillColor=none;align=center;verticalAlign=middle;whiteSpace=wrap;rounded=0;" vertex="1" parent="grXvKpiBtCGuTxDAUHIj-48">
          <mxGeometry x="10" y="50" width="80" height="30" as="geometry" />
        </mxCell>
        <mxCell id="grXvKpiBtCGuTxDAUHIj-180" value="" style="endArrow=none;html=1;rounded=0;exitX=0;exitY=0.75;exitDx=0;exitDy=0;" edge="1" parent="grXvKpiBtCGuTxDAUHIj-48">
          <mxGeometry width="50" height="50" relative="1" as="geometry">
            <mxPoint y="120" as="sourcePoint" />
            <mxPoint x="210" y="120" as="targetPoint" />
            <Array as="points">
              <mxPoint x="100" y="120.5" />
            </Array>
          </mxGeometry>
        </mxCell>
        <mxCell id="grXvKpiBtCGuTxDAUHIj-181" value="&lt;i&gt;void setBankAPI(BankAPI banlAPI)&lt;/i&gt;" style="text;html=1;strokeColor=none;fillColor=none;align=left;verticalAlign=middle;whiteSpace=wrap;rounded=0;" vertex="1" parent="grXvKpiBtCGuTxDAUHIj-48">
          <mxGeometry y="120" width="200" height="30" as="geometry" />
        </mxCell>
        <mxCell id="grXvKpiBtCGuTxDAUHIj-182" value="BankAPI getBankAPI()" style="text;html=1;strokeColor=none;fillColor=none;align=center;verticalAlign=middle;whiteSpace=wrap;rounded=0;" vertex="1" parent="grXvKpiBtCGuTxDAUHIj-48">
          <mxGeometry y="150" width="130" height="30" as="geometry" />
        </mxCell>
        <mxCell id="grXvKpiBtCGuTxDAUHIj-188" value="void setName(String Name)" style="text;html=1;strokeColor=none;fillColor=none;align=center;verticalAlign=middle;whiteSpace=wrap;rounded=0;" vertex="1" parent="grXvKpiBtCGuTxDAUHIj-48">
          <mxGeometry y="179" width="160" height="30" as="geometry" />
        </mxCell>
        <mxCell id="grXvKpiBtCGuTxDAUHIj-186" value="String getName()" style="text;html=1;strokeColor=none;fillColor=none;align=center;verticalAlign=middle;whiteSpace=wrap;rounded=0;" vertex="1" parent="grXvKpiBtCGuTxDAUHIj-48">
          <mxGeometry x="-5" y="209" width="110" height="30" as="geometry" />
        </mxCell>
        <mxCell id="grXvKpiBtCGuTxDAUHIj-49" value="&lt;span style=&quot;font-weight: normal;&quot;&gt;&lt;i&gt;ElectronicPaymentCompany&lt;/i&gt;&lt;/span&gt;" style="swimlane;whiteSpace=wrap;html=1;" vertex="1" parent="WIyWlLk6GJQsqaUBKTNV-1">
          <mxGeometry x="140" y="960" width="200" height="200" as="geometry" />
        </mxCell>
        <mxCell id="grXvKpiBtCGuTxDAUHIj-51" value="Extends" style="endArrow=block;endSize=16;endFill=0;html=1;rounded=0;exitX=0.833;exitY=0.973;exitDx=0;exitDy=0;exitPerimeter=0;" edge="1" parent="WIyWlLk6GJQsqaUBKTNV-1">
          <mxGeometry width="160" relative="1" as="geometry">
            <mxPoint x="239.98000000000002" y="959.19" as="sourcePoint" />
            <mxPoint x="240" y="900" as="targetPoint" />
          </mxGeometry>
        </mxCell>
        <mxCell id="grXvKpiBtCGuTxDAUHIj-52" value="" style="endArrow=none;html=1;rounded=0;" edge="1" parent="WIyWlLk6GJQsqaUBKTNV-1">
          <mxGeometry width="50" height="50" relative="1" as="geometry">
            <mxPoint x="-870" y="940" as="sourcePoint" />
            <mxPoint x="1260" y="940" as="targetPoint" />
          </mxGeometry>
        </mxCell>
        <mxCell id="grXvKpiBtCGuTxDAUHIj-54" value="" style="endArrow=none;html=1;rounded=0;" edge="1" parent="WIyWlLk6GJQsqaUBKTNV-1">
          <mxGeometry width="50" height="50" relative="1" as="geometry">
            <mxPoint x="1259" y="960" as="sourcePoint" />
            <mxPoint x="1259.17" y="939" as="targetPoint" />
          </mxGeometry>
        </mxCell>
        <mxCell id="grXvKpiBtCGuTxDAUHIj-62" value="&lt;i&gt;&amp;lt;&amp;lt;Abstract&amp;gt;&amp;gt;&lt;/i&gt;" style="text;html=1;strokeColor=none;fillColor=none;align=center;verticalAlign=middle;whiteSpace=wrap;rounded=0;" vertex="1" parent="WIyWlLk6GJQsqaUBKTNV-1">
          <mxGeometry x="-960" y="909" width="60" height="30" as="geometry" />
        </mxCell>
        <mxCell id="grXvKpiBtCGuTxDAUHIj-63" value="&lt;span style=&quot;font-weight: normal;&quot;&gt;Etisalat&lt;/span&gt;" style="swimlane;whiteSpace=wrap;html=1;" vertex="1" parent="WIyWlLk6GJQsqaUBKTNV-1">
          <mxGeometry x="-680" y="1240" width="200" height="200" as="geometry" />
        </mxCell>
        <mxCell id="grXvKpiBtCGuTxDAUHIj-64" value="&lt;span style=&quot;font-weight: normal;&quot;&gt;Orange&lt;/span&gt;" style="swimlane;whiteSpace=wrap;html=1;" vertex="1" parent="WIyWlLk6GJQsqaUBKTNV-1">
          <mxGeometry x="-960" y="1240" width="200" height="200" as="geometry" />
        </mxCell>
        <mxCell id="grXvKpiBtCGuTxDAUHIj-65" value="&lt;span style=&quot;font-weight: normal;&quot;&gt;Vodafone&lt;/span&gt;" style="swimlane;whiteSpace=wrap;html=1;startSize=20;" vertex="1" parent="WIyWlLk6GJQsqaUBKTNV-1">
          <mxGeometry x="-1240" y="1240" width="200" height="200" as="geometry" />
        </mxCell>
        <mxCell id="grXvKpiBtCGuTxDAUHIj-70" value="" style="endArrow=none;html=1;rounded=0;" edge="1" parent="WIyWlLk6GJQsqaUBKTNV-1">
          <mxGeometry width="50" height="50" relative="1" as="geometry">
            <mxPoint x="-1140" y="1200" as="sourcePoint" />
            <mxPoint x="-580" y="1200" as="targetPoint" />
          </mxGeometry>
        </mxCell>
        <mxCell id="grXvKpiBtCGuTxDAUHIj-71" value="Extends" style="endArrow=block;endSize=16;endFill=0;html=1;rounded=0;entryX=0.5;entryY=1;entryDx=0;entryDy=0;exitX=0.5;exitY=0;exitDx=0;exitDy=0;" edge="1" parent="WIyWlLk6GJQsqaUBKTNV-1" source="grXvKpiBtCGuTxDAUHIj-64" target="grXvKpiBtCGuTxDAUHIj-47">
          <mxGeometry width="160" relative="1" as="geometry">
            <mxPoint x="-730" y="1320" as="sourcePoint" />
            <mxPoint x="-570" y="1320" as="targetPoint" />
          </mxGeometry>
        </mxCell>
        <mxCell id="grXvKpiBtCGuTxDAUHIj-73" value="" style="endArrow=none;html=1;rounded=0;exitX=0.5;exitY=0;exitDx=0;exitDy=0;" edge="1" parent="WIyWlLk6GJQsqaUBKTNV-1" source="grXvKpiBtCGuTxDAUHIj-63">
          <mxGeometry width="50" height="50" relative="1" as="geometry">
            <mxPoint x="-670" y="1340" as="sourcePoint" />
            <mxPoint x="-580" y="1200" as="targetPoint" />
          </mxGeometry>
        </mxCell>
        <mxCell id="grXvKpiBtCGuTxDAUHIj-74" value="" style="endArrow=none;html=1;rounded=0;" edge="1" parent="WIyWlLk6GJQsqaUBKTNV-1" source="grXvKpiBtCGuTxDAUHIj-65">
          <mxGeometry width="50" height="50" relative="1" as="geometry">
            <mxPoint x="-1060" y="1310" as="sourcePoint" />
            <mxPoint x="-1140" y="1200" as="targetPoint" />
          </mxGeometry>
        </mxCell>
        <mxCell id="grXvKpiBtCGuTxDAUHIj-75" value="" style="endArrow=none;html=1;rounded=0;exitX=0.45;exitY=0;exitDx=0;exitDy=0;exitPerimeter=0;" edge="1" parent="WIyWlLk6GJQsqaUBKTNV-1" source="grXvKpiBtCGuTxDAUHIj-47">
          <mxGeometry width="50" height="50" relative="1" as="geometry">
            <mxPoint x="-740" y="1160" as="sourcePoint" />
            <mxPoint x="-870" y="940" as="targetPoint" />
          </mxGeometry>
        </mxCell>
        <mxCell id="grXvKpiBtCGuTxDAUHIj-78" value="&lt;span style=&quot;font-weight: normal;&quot;&gt;Bee&lt;/span&gt;" style="swimlane;whiteSpace=wrap;html=1;" vertex="1" parent="WIyWlLk6GJQsqaUBKTNV-1">
          <mxGeometry x="140" y="1240" width="200" height="200" as="geometry" />
        </mxCell>
        <mxCell id="grXvKpiBtCGuTxDAUHIj-79" value="&lt;span style=&quot;font-weight: normal;&quot;&gt;Aman&lt;/span&gt;" style="swimlane;whiteSpace=wrap;html=1;startSize=20;" vertex="1" parent="WIyWlLk6GJQsqaUBKTNV-1">
          <mxGeometry x="480" y="1240" width="200" height="200" as="geometry" />
        </mxCell>
        <mxCell id="grXvKpiBtCGuTxDAUHIj-80" value="&lt;span style=&quot;font-weight: normal;&quot;&gt;Fawry&lt;/span&gt;" style="swimlane;whiteSpace=wrap;html=1;" vertex="1" parent="WIyWlLk6GJQsqaUBKTNV-1">
          <mxGeometry x="-200" y="1240" width="200" height="200" as="geometry" />
        </mxCell>
        <mxCell id="grXvKpiBtCGuTxDAUHIj-82" value="Extends" style="endArrow=block;endSize=16;endFill=0;html=1;rounded=0;entryX=0.5;entryY=1;entryDx=0;entryDy=0;exitX=0.5;exitY=0;exitDx=0;exitDy=0;" edge="1" parent="WIyWlLk6GJQsqaUBKTNV-1" source="grXvKpiBtCGuTxDAUHIj-78" target="grXvKpiBtCGuTxDAUHIj-49">
          <mxGeometry width="160" relative="1" as="geometry">
            <mxPoint x="130" y="1140" as="sourcePoint" />
            <mxPoint x="290" y="1140" as="targetPoint" />
          </mxGeometry>
        </mxCell>
        <mxCell id="grXvKpiBtCGuTxDAUHIj-83" value="" style="endArrow=none;html=1;rounded=0;" edge="1" parent="WIyWlLk6GJQsqaUBKTNV-1">
          <mxGeometry width="50" height="50" relative="1" as="geometry">
            <mxPoint x="-100" y="1200" as="sourcePoint" />
            <mxPoint x="580" y="1200" as="targetPoint" />
          </mxGeometry>
        </mxCell>
        <mxCell id="grXvKpiBtCGuTxDAUHIj-84" value="" style="endArrow=none;html=1;rounded=0;exitX=0.5;exitY=0;exitDx=0;exitDy=0;" edge="1" parent="WIyWlLk6GJQsqaUBKTNV-1" source="grXvKpiBtCGuTxDAUHIj-80">
          <mxGeometry width="50" height="50" relative="1" as="geometry">
            <mxPoint x="180" y="1170" as="sourcePoint" />
            <mxPoint x="-100" y="1200" as="targetPoint" />
          </mxGeometry>
        </mxCell>
        <mxCell id="grXvKpiBtCGuTxDAUHIj-85" value="" style="endArrow=none;html=1;rounded=0;exitX=0.5;exitY=0;exitDx=0;exitDy=0;" edge="1" parent="WIyWlLk6GJQsqaUBKTNV-1" source="grXvKpiBtCGuTxDAUHIj-79">
          <mxGeometry width="50" height="50" relative="1" as="geometry">
            <mxPoint x="180" y="1170" as="sourcePoint" />
            <mxPoint x="580" y="1200" as="targetPoint" />
          </mxGeometry>
        </mxCell>
        <mxCell id="grXvKpiBtCGuTxDAUHIj-86" value="&lt;i style=&quot;border-color: var(--border-color); caret-color: rgb(0, 0, 0); color: rgb(0, 0, 0); font-family: Helvetica; font-size: 12px; font-variant-caps: normal; font-weight: 400; letter-spacing: normal; text-align: center; text-indent: 0px; text-transform: none; word-spacing: 0px; -webkit-text-stroke-width: 0px; text-decoration: none;&quot;&gt;&amp;lt;&amp;lt;Abstract&amp;gt;&amp;gt;&lt;/i&gt;" style="text;html=1;strokeColor=none;fillColor=none;align=center;verticalAlign=middle;whiteSpace=wrap;rounded=0;" vertex="1" parent="WIyWlLk6GJQsqaUBKTNV-1">
          <mxGeometry x="1290" y="909" width="60" height="30" as="geometry" />
        </mxCell>
        <mxCell id="grXvKpiBtCGuTxDAUHIj-90" value="Extends" style="endArrow=block;endSize=16;endFill=0;html=1;rounded=0;exitX=0.5;exitY=0;exitDx=0;exitDy=0;" edge="1" parent="WIyWlLk6GJQsqaUBKTNV-1" source="grXvKpiBtCGuTxDAUHIj-102">
          <mxGeometry x="-0.0053" width="160" relative="1" as="geometry">
            <mxPoint x="1259.23" y="1380" as="sourcePoint" />
            <mxPoint x="1260" y="1200" as="targetPoint" />
            <Array as="points" />
            <mxPoint as="offset" />
          </mxGeometry>
        </mxCell>
        <mxCell id="grXvKpiBtCGuTxDAUHIj-99" value="&lt;span style=&quot;font-weight: normal;&quot;&gt;CIB&lt;/span&gt;" style="swimlane;whiteSpace=wrap;html=1;" vertex="1" parent="WIyWlLk6GJQsqaUBKTNV-1">
          <mxGeometry x="840" y="1400" width="200" height="200" as="geometry" />
        </mxCell>
        <mxCell id="grXvKpiBtCGuTxDAUHIj-177" value="bankAPI : CIBAPI" style="text;html=1;strokeColor=none;fillColor=none;align=left;verticalAlign=middle;whiteSpace=wrap;rounded=0;" vertex="1" parent="grXvKpiBtCGuTxDAUHIj-99">
          <mxGeometry x="10" y="40" width="100" height="30" as="geometry" />
        </mxCell>
        <mxCell id="grXvKpiBtCGuTxDAUHIj-102" value="&lt;span style=&quot;font-weight: normal;&quot;&gt;BanqueMasr&lt;/span&gt;" style="swimlane;whiteSpace=wrap;html=1;" vertex="1" parent="WIyWlLk6GJQsqaUBKTNV-1">
          <mxGeometry x="1160" y="1390" width="200" height="200" as="geometry" />
        </mxCell>
        <mxCell id="grXvKpiBtCGuTxDAUHIj-178" value="&lt;span style=&quot;caret-color: rgb(0, 0, 0); color: rgb(0, 0, 0); font-family: Helvetica; font-size: 12px; font-style: normal; font-variant-caps: normal; font-weight: 400; letter-spacing: normal; text-align: left; text-indent: 0px; text-transform: none; word-spacing: 0px; -webkit-text-stroke-width: 0px; background-color: rgb(251, 251, 251); text-decoration: none; float: none; display: inline !important;&quot;&gt;bankAPI : BanqueMasrAPI&lt;/span&gt;" style="text;html=1;strokeColor=none;fillColor=none;align=center;verticalAlign=middle;whiteSpace=wrap;rounded=0;" vertex="1" parent="grXvKpiBtCGuTxDAUHIj-102">
          <mxGeometry x="10" y="40" width="150" height="30" as="geometry" />
        </mxCell>
        <mxCell id="grXvKpiBtCGuTxDAUHIj-103" value="&lt;span style=&quot;font-weight: normal;&quot;&gt;QNB&lt;/span&gt;" style="swimlane;whiteSpace=wrap;html=1;" vertex="1" parent="WIyWlLk6GJQsqaUBKTNV-1">
          <mxGeometry x="1480" y="1400" width="200" height="200" as="geometry" />
        </mxCell>
        <mxCell id="grXvKpiBtCGuTxDAUHIj-179" value="&lt;span style=&quot;caret-color: rgb(0, 0, 0); color: rgb(0, 0, 0); font-family: Helvetica; font-size: 12px; font-style: normal; font-variant-caps: normal; font-weight: 400; letter-spacing: normal; text-align: left; text-indent: 0px; text-transform: none; word-spacing: 0px; -webkit-text-stroke-width: 0px; background-color: rgb(251, 251, 251); text-decoration: none; float: none; display: inline !important;&quot;&gt;bankAPI : QNBAPI&lt;/span&gt;" style="text;html=1;strokeColor=none;fillColor=none;align=center;verticalAlign=middle;whiteSpace=wrap;rounded=0;" vertex="1" parent="grXvKpiBtCGuTxDAUHIj-103">
          <mxGeometry x="10" y="40" width="110" height="30" as="geometry" />
        </mxCell>
        <mxCell id="grXvKpiBtCGuTxDAUHIj-104" value="" style="endArrow=none;html=1;rounded=0;" edge="1" parent="WIyWlLk6GJQsqaUBKTNV-1">
          <mxGeometry width="50" height="50" relative="1" as="geometry">
            <mxPoint x="940" y="1360" as="sourcePoint" />
            <mxPoint x="1580" y="1360" as="targetPoint" />
            <Array as="points">
              <mxPoint x="1260" y="1360" />
            </Array>
          </mxGeometry>
        </mxCell>
        <mxCell id="grXvKpiBtCGuTxDAUHIj-105" value="" style="endArrow=none;html=1;rounded=0;" edge="1" parent="WIyWlLk6GJQsqaUBKTNV-1" source="grXvKpiBtCGuTxDAUHIj-99">
          <mxGeometry width="50" height="50" relative="1" as="geometry">
            <mxPoint x="1020" y="1320" as="sourcePoint" />
            <mxPoint x="940" y="1360" as="targetPoint" />
          </mxGeometry>
        </mxCell>
        <mxCell id="grXvKpiBtCGuTxDAUHIj-106" value="" style="endArrow=none;html=1;rounded=0;exitX=0.5;exitY=0;exitDx=0;exitDy=0;" edge="1" parent="WIyWlLk6GJQsqaUBKTNV-1" source="grXvKpiBtCGuTxDAUHIj-103">
          <mxGeometry width="50" height="50" relative="1" as="geometry">
            <mxPoint x="1360" y="1320" as="sourcePoint" />
            <mxPoint x="1580" y="1360" as="targetPoint" />
          </mxGeometry>
        </mxCell>
        <mxCell id="grXvKpiBtCGuTxDAUHIj-107" value="&lt;span style=&quot;font-weight: normal;&quot;&gt;&lt;i&gt;BankAPI&lt;/i&gt;&lt;/span&gt;" style="swimlane;whiteSpace=wrap;html=1;" vertex="1" parent="WIyWlLk6GJQsqaUBKTNV-1">
          <mxGeometry x="2420.5" y="950" width="560" height="200" as="geometry" />
        </mxCell>
        <mxCell id="grXvKpiBtCGuTxDAUHIj-130" value="void InquireBalanceAccount(User obj)" style="text;html=1;strokeColor=none;fillColor=none;align=left;verticalAlign=middle;whiteSpace=wrap;rounded=0;fontStyle=2" vertex="1" parent="grXvKpiBtCGuTxDAUHIj-107">
          <mxGeometry x="7.5" y="30" width="255" height="30" as="geometry" />
        </mxCell>
        <mxCell id="grXvKpiBtCGuTxDAUHIj-131" value="void viewTransactionHistory(User obj)" style="text;html=1;strokeColor=none;fillColor=none;align=left;verticalAlign=middle;whiteSpace=wrap;rounded=0;fontStyle=2" vertex="1" parent="grXvKpiBtCGuTxDAUHIj-107">
          <mxGeometry x="7.5" y="120" width="270" height="30" as="geometry" />
        </mxCell>
        <mxCell id="grXvKpiBtCGuTxDAUHIj-134" value="&lt;i&gt;boolean validateBankUser(User &amp;nbsp;bankUser)&lt;/i&gt;" style="text;html=1;strokeColor=none;fillColor=none;align=left;verticalAlign=middle;whiteSpace=wrap;rounded=0;" vertex="1" parent="grXvKpiBtCGuTxDAUHIj-107">
          <mxGeometry x="7.5" y="150" width="250" height="30" as="geometry" />
        </mxCell>
        <mxCell id="grXvKpiBtCGuTxDAUHIj-132" value="boolean transferFund(User obj1, User obj2, double Fund)" style="text;html=1;strokeColor=none;fillColor=none;align=left;verticalAlign=middle;whiteSpace=wrap;rounded=0;fontStyle=2" vertex="1" parent="grXvKpiBtCGuTxDAUHIj-107">
          <mxGeometry x="7.5" y="60" width="452.5" height="30" as="geometry" />
        </mxCell>
        <mxCell id="grXvKpiBtCGuTxDAUHIj-133" value="boolean payBills(User obj, WalletProvider paymentMethod, double billAmount)" style="text;html=1;strokeColor=none;fillColor=none;align=left;verticalAlign=middle;whiteSpace=wrap;rounded=0;fontStyle=2" vertex="1" parent="grXvKpiBtCGuTxDAUHIj-107">
          <mxGeometry x="7.5" y="90" width="432.5" height="30" as="geometry" />
        </mxCell>
        <mxCell id="grXvKpiBtCGuTxDAUHIj-108" value="&lt;span style=&quot;font-weight: normal;&quot;&gt;&lt;i&gt;DigitalWallet&lt;/i&gt;&lt;/span&gt;" style="swimlane;whiteSpace=wrap;html=1;" vertex="1" parent="WIyWlLk6GJQsqaUBKTNV-1">
          <mxGeometry x="-1920" y="960" width="200" height="200" as="geometry" />
        </mxCell>
        <mxCell id="grXvKpiBtCGuTxDAUHIj-199" value="&lt;span style=&quot;caret-color: rgb(0, 0, 0); color: rgb(0, 0, 0); font-family: Helvetica; font-size: 12px; font-style: italic; font-variant-caps: normal; font-weight: 400; letter-spacing: normal; text-align: left; text-indent: 0px; text-transform: none; word-spacing: 0px; -webkit-text-stroke-width: 0px; background-color: rgb(251, 251, 251); text-decoration: none; float: none; display: inline !important;&quot;&gt;customers : User []. ??&amp;nbsp;&lt;/span&gt;" style="text;html=1;strokeColor=none;fillColor=none;align=center;verticalAlign=middle;whiteSpace=wrap;rounded=0;" vertex="1" parent="grXvKpiBtCGuTxDAUHIj-108">
          <mxGeometry x="10" y="40" width="110" height="30" as="geometry" />
        </mxCell>
        <mxCell id="grXvKpiBtCGuTxDAUHIj-112" value="&lt;span style=&quot;font-weight: normal;&quot;&gt;CIBAPI&lt;/span&gt;" style="swimlane;whiteSpace=wrap;html=1;align=center;" vertex="1" parent="WIyWlLk6GJQsqaUBKTNV-1">
          <mxGeometry x="1880" y="1240" width="440" height="240" as="geometry" />
        </mxCell>
        <mxCell id="grXvKpiBtCGuTxDAUHIj-135" value="void InquireBalanceAccount(User obj)" style="text;html=1;strokeColor=none;fillColor=none;align=left;verticalAlign=middle;whiteSpace=wrap;rounded=0;" vertex="1" parent="grXvKpiBtCGuTxDAUHIj-112">
          <mxGeometry x="5" y="40" width="270" height="30" as="geometry" />
        </mxCell>
        <mxCell id="grXvKpiBtCGuTxDAUHIj-136" value="boolean transferFund(User obj1, User obj2, double Fund)" style="text;html=1;strokeColor=none;fillColor=none;align=left;verticalAlign=middle;whiteSpace=wrap;rounded=0;" vertex="1" parent="grXvKpiBtCGuTxDAUHIj-112">
          <mxGeometry x="5" y="80" width="450" height="30" as="geometry" />
        </mxCell>
        <mxCell id="grXvKpiBtCGuTxDAUHIj-138" value="boolean payBills(User obj, WalletProvider paymentMethod, double billAmount)" style="text;html=1;strokeColor=none;fillColor=none;align=left;verticalAlign=middle;whiteSpace=wrap;rounded=0;" vertex="1" parent="grXvKpiBtCGuTxDAUHIj-112">
          <mxGeometry x="5" y="120" width="435" height="30" as="geometry" />
        </mxCell>
        <mxCell id="grXvKpiBtCGuTxDAUHIj-137" value="void viewTransactionHistory(User obj)" style="text;html=1;strokeColor=none;fillColor=none;align=left;verticalAlign=middle;whiteSpace=wrap;rounded=0;" vertex="1" parent="grXvKpiBtCGuTxDAUHIj-112">
          <mxGeometry x="5" y="160" width="280" height="30" as="geometry" />
        </mxCell>
        <mxCell id="grXvKpiBtCGuTxDAUHIj-140" value="&lt;span style=&quot;border-color: var(--border-color);&quot;&gt;boolean validateBankUser(User &amp;nbsp;bankUser)&lt;/span&gt;" style="text;html=1;strokeColor=none;fillColor=none;align=left;verticalAlign=middle;whiteSpace=wrap;rounded=0;fontStyle=0" vertex="1" parent="grXvKpiBtCGuTxDAUHIj-112">
          <mxGeometry x="5" y="180" width="260" height="60" as="geometry" />
        </mxCell>
        <mxCell id="grXvKpiBtCGuTxDAUHIj-114" value="&lt;span style=&quot;font-weight: normal;&quot;&gt;QNBAPI&lt;/span&gt;" style="swimlane;whiteSpace=wrap;html=1;" vertex="1" parent="WIyWlLk6GJQsqaUBKTNV-1">
          <mxGeometry x="3080" y="1240" width="440" height="240" as="geometry" />
        </mxCell>
        <mxCell id="grXvKpiBtCGuTxDAUHIj-142" value="&lt;div style=&quot;text-align: left;&quot;&gt;void InquireBalanceAccount(User obj)&lt;/div&gt;" style="text;html=1;strokeColor=none;fillColor=none;align=center;verticalAlign=middle;whiteSpace=wrap;rounded=0;" vertex="1" parent="grXvKpiBtCGuTxDAUHIj-114">
          <mxGeometry x="10" y="40" width="210" height="30" as="geometry" />
        </mxCell>
        <mxCell id="grXvKpiBtCGuTxDAUHIj-148" value="&lt;div style=&quot;text-align: left;&quot;&gt;boolean transferFund(User obj1, User obj2, double Fund)&lt;/div&gt;" style="text;html=1;strokeColor=none;fillColor=none;align=center;verticalAlign=middle;whiteSpace=wrap;rounded=0;" vertex="1" parent="grXvKpiBtCGuTxDAUHIj-114">
          <mxGeometry x="10" y="80" width="310" height="30" as="geometry" />
        </mxCell>
        <mxCell id="grXvKpiBtCGuTxDAUHIj-151" value="&lt;div style=&quot;text-align: left;&quot;&gt;boolean payBills(User obj, WalletProvider paymentMethod, double billAmount)&lt;/div&gt;" style="text;html=1;strokeColor=none;fillColor=none;align=center;verticalAlign=middle;whiteSpace=wrap;rounded=0;" vertex="1" parent="grXvKpiBtCGuTxDAUHIj-114">
          <mxGeometry x="10" y="120" width="420" height="30" as="geometry" />
        </mxCell>
        <mxCell id="grXvKpiBtCGuTxDAUHIj-146" value="&lt;div style=&quot;text-align: left;&quot;&gt;void viewTransactionHistory(User obj)&lt;/div&gt;" style="text;html=1;strokeColor=none;fillColor=none;align=center;verticalAlign=middle;whiteSpace=wrap;rounded=0;" vertex="1" parent="grXvKpiBtCGuTxDAUHIj-114">
          <mxGeometry x="10" y="160" width="210" height="30" as="geometry" />
        </mxCell>
        <mxCell id="grXvKpiBtCGuTxDAUHIj-153" value="boolean validateBankUser(User &amp;nbsp;bankUser)" style="text;html=1;strokeColor=none;fillColor=none;align=center;verticalAlign=middle;whiteSpace=wrap;rounded=0;" vertex="1" parent="grXvKpiBtCGuTxDAUHIj-114">
          <mxGeometry x="10" y="200" width="240" height="30" as="geometry" />
        </mxCell>
        <mxCell id="grXvKpiBtCGuTxDAUHIj-115" value="Extends" style="endArrow=block;endSize=16;endFill=0;html=1;rounded=0;entryX=0.5;entryY=1;entryDx=0;entryDy=0;" edge="1" parent="WIyWlLk6GJQsqaUBKTNV-1" source="grXvKpiBtCGuTxDAUHIj-113" target="grXvKpiBtCGuTxDAUHIj-107">
          <mxGeometry width="160" relative="1" as="geometry">
            <mxPoint x="1890" y="1270" as="sourcePoint" />
            <mxPoint x="2050" y="1270" as="targetPoint" />
          </mxGeometry>
        </mxCell>
        <mxCell id="grXvKpiBtCGuTxDAUHIj-116" value="" style="endArrow=none;html=1;rounded=0;" edge="1" parent="WIyWlLk6GJQsqaUBKTNV-1">
          <mxGeometry width="50" height="50" relative="1" as="geometry">
            <mxPoint x="2100" y="1200" as="sourcePoint" />
            <mxPoint x="3310" y="1200" as="targetPoint" />
          </mxGeometry>
        </mxCell>
        <mxCell id="grXvKpiBtCGuTxDAUHIj-117" value="" style="endArrow=none;html=1;rounded=0;exitX=0.5;exitY=0;exitDx=0;exitDy=0;" edge="1" parent="WIyWlLk6GJQsqaUBKTNV-1" source="grXvKpiBtCGuTxDAUHIj-112">
          <mxGeometry width="50" height="50" relative="1" as="geometry">
            <mxPoint x="2250" y="1280" as="sourcePoint" />
            <mxPoint x="2100" y="1200" as="targetPoint" />
          </mxGeometry>
        </mxCell>
        <mxCell id="grXvKpiBtCGuTxDAUHIj-118" value="" style="endArrow=none;html=1;rounded=0;" edge="1" parent="WIyWlLk6GJQsqaUBKTNV-1">
          <mxGeometry width="50" height="50" relative="1" as="geometry">
            <mxPoint x="3310" y="1240" as="sourcePoint" />
            <mxPoint x="3310" y="1200" as="targetPoint" />
          </mxGeometry>
        </mxCell>
        <mxCell id="grXvKpiBtCGuTxDAUHIj-119" value="&lt;i&gt;&amp;lt;&amp;lt;Interface&amp;gt;&amp;gt;&lt;/i&gt;" style="text;html=1;strokeColor=none;fillColor=none;align=center;verticalAlign=middle;whiteSpace=wrap;rounded=0;" vertex="1" parent="WIyWlLk6GJQsqaUBKTNV-1">
          <mxGeometry x="2670.5" y="890" width="60" height="30" as="geometry" />
        </mxCell>
        <mxCell id="grXvKpiBtCGuTxDAUHIj-120" value="&lt;span style=&quot;font-weight: normal;&quot;&gt;VodafoneCash&lt;/span&gt;" style="swimlane;whiteSpace=wrap;html=1;" vertex="1" parent="WIyWlLk6GJQsqaUBKTNV-1">
          <mxGeometry x="-2200" y="1240" width="200" height="200" as="geometry" />
        </mxCell>
        <mxCell id="grXvKpiBtCGuTxDAUHIj-121" value="&lt;span style=&quot;font-weight: normal;&quot;&gt;OrangeCash&lt;/span&gt;" style="swimlane;whiteSpace=wrap;html=1;" vertex="1" parent="WIyWlLk6GJQsqaUBKTNV-1">
          <mxGeometry x="-1920" y="1240" width="200" height="200" as="geometry" />
        </mxCell>
        <mxCell id="grXvKpiBtCGuTxDAUHIj-122" value="&lt;span style=&quot;font-weight: normal;&quot;&gt;Flous&lt;/span&gt;" style="swimlane;whiteSpace=wrap;html=1;" vertex="1" parent="WIyWlLk6GJQsqaUBKTNV-1">
          <mxGeometry x="-1640" y="1240" width="200" height="200" as="geometry" />
        </mxCell>
        <mxCell id="grXvKpiBtCGuTxDAUHIj-123" value="Extends" style="endArrow=block;endSize=16;endFill=0;html=1;rounded=0;exitX=0.5;exitY=0;exitDx=0;exitDy=0;" edge="1" parent="WIyWlLk6GJQsqaUBKTNV-1" source="grXvKpiBtCGuTxDAUHIj-121">
          <mxGeometry width="160" relative="1" as="geometry">
            <mxPoint x="-1730" y="1190" as="sourcePoint" />
            <mxPoint x="-1820" y="1160" as="targetPoint" />
          </mxGeometry>
        </mxCell>
        <mxCell id="grXvKpiBtCGuTxDAUHIj-124" value="" style="endArrow=none;html=1;rounded=0;" edge="1" parent="WIyWlLk6GJQsqaUBKTNV-1">
          <mxGeometry width="50" height="50" relative="1" as="geometry">
            <mxPoint x="-2100" y="1200" as="sourcePoint" />
            <mxPoint x="-1540" y="1200" as="targetPoint" />
          </mxGeometry>
        </mxCell>
        <mxCell id="grXvKpiBtCGuTxDAUHIj-125" value="" style="endArrow=none;html=1;rounded=0;" edge="1" parent="WIyWlLk6GJQsqaUBKTNV-1" source="grXvKpiBtCGuTxDAUHIj-120">
          <mxGeometry width="50" height="50" relative="1" as="geometry">
            <mxPoint x="-1840" y="1210" as="sourcePoint" />
            <mxPoint x="-2100" y="1200" as="targetPoint" />
          </mxGeometry>
        </mxCell>
        <mxCell id="grXvKpiBtCGuTxDAUHIj-126" value="" style="endArrow=none;html=1;rounded=0;exitX=0.5;exitY=0;exitDx=0;exitDy=0;" edge="1" parent="WIyWlLk6GJQsqaUBKTNV-1" source="grXvKpiBtCGuTxDAUHIj-122">
          <mxGeometry width="50" height="50" relative="1" as="geometry">
            <mxPoint x="-1520" y="1240" as="sourcePoint" />
            <mxPoint x="-1540" y="1200" as="targetPoint" />
          </mxGeometry>
        </mxCell>
        <mxCell id="grXvKpiBtCGuTxDAUHIj-127" value="&lt;i&gt;&amp;lt;&amp;lt;Abstract&amp;gt;&amp;gt;&lt;/i&gt;" style="text;html=1;strokeColor=none;fillColor=none;align=center;verticalAlign=middle;whiteSpace=wrap;rounded=0;" vertex="1" parent="WIyWlLk6GJQsqaUBKTNV-1">
          <mxGeometry x="-1850" y="920" width="60" height="30" as="geometry" />
        </mxCell>
        <mxCell id="grXvKpiBtCGuTxDAUHIj-129" value="&lt;b&gt;//strategy pattern&lt;/b&gt;" style="text;html=1;strokeColor=none;fillColor=none;align=center;verticalAlign=middle;whiteSpace=wrap;rounded=0;" vertex="1" parent="WIyWlLk6GJQsqaUBKTNV-1">
          <mxGeometry x="1400" y="890" width="60" height="30" as="geometry" />
        </mxCell>
        <mxCell id="grXvKpiBtCGuTxDAUHIj-113" value="&lt;span style=&quot;font-weight: normal;&quot;&gt;BanqueMasrAPI&lt;/span&gt;" style="swimlane;whiteSpace=wrap;html=1;" vertex="1" parent="WIyWlLk6GJQsqaUBKTNV-1">
          <mxGeometry x="2481" y="1240" width="439" height="240" as="geometry" />
        </mxCell>
        <mxCell id="grXvKpiBtCGuTxDAUHIj-141" value="void InquireBalanceAccount(User obj)" style="text;html=1;strokeColor=none;fillColor=none;align=left;verticalAlign=middle;whiteSpace=wrap;rounded=0;" vertex="1" parent="grXvKpiBtCGuTxDAUHIj-113">
          <mxGeometry x="9" y="40" width="280" height="30" as="geometry" />
        </mxCell>
        <mxCell id="grXvKpiBtCGuTxDAUHIj-147" value="boolean transferFund(User obj1, User obj2, double Fund)" style="text;html=1;strokeColor=none;fillColor=none;align=left;verticalAlign=middle;whiteSpace=wrap;rounded=0;" vertex="1" parent="grXvKpiBtCGuTxDAUHIj-113">
          <mxGeometry x="9" y="80" width="450" height="30" as="geometry" />
        </mxCell>
        <mxCell id="grXvKpiBtCGuTxDAUHIj-150" value="boolean payBills(User obj, WalletProvider paymentMethod, double billAmount)" style="text;html=1;strokeColor=none;fillColor=none;align=left;verticalAlign=middle;whiteSpace=wrap;rounded=0;" vertex="1" parent="grXvKpiBtCGuTxDAUHIj-113">
          <mxGeometry x="9" y="120" width="421" height="30" as="geometry" />
        </mxCell>
        <mxCell id="grXvKpiBtCGuTxDAUHIj-145" value="void viewTransactionHistory(User obj)" style="text;html=1;strokeColor=none;fillColor=none;align=left;verticalAlign=middle;whiteSpace=wrap;rounded=0;" vertex="1" parent="grXvKpiBtCGuTxDAUHIj-113">
          <mxGeometry x="9" y="160" width="290" height="30" as="geometry" />
        </mxCell>
        <mxCell id="grXvKpiBtCGuTxDAUHIj-152" value="boolean validateBankUser(User &amp;nbsp;bankUser)" style="text;html=1;strokeColor=none;fillColor=none;align=left;verticalAlign=middle;whiteSpace=wrap;rounded=0;" vertex="1" parent="WIyWlLk6GJQsqaUBKTNV-1">
          <mxGeometry x="2490" y="1440" width="259" height="30" as="geometry" />
        </mxCell>
        <mxCell id="grXvKpiBtCGuTxDAUHIj-162" value="" style="endArrow=diamondThin;endFill=0;endSize=24;html=1;rounded=0;" edge="1" parent="WIyWlLk6GJQsqaUBKTNV-1">
          <mxGeometry width="160" relative="1" as="geometry">
            <mxPoint x="2430" y="970" as="sourcePoint" />
            <mxPoint x="1370" y="970" as="targetPoint" />
          </mxGeometry>
        </mxCell>
        <mxCell id="grXvKpiBtCGuTxDAUHIj-167" value="1" style="endArrow=open;html=1;endSize=12;startArrow=diamondThin;startSize=14;startFill=0;edgeStyle=orthogonalEdgeStyle;align=left;verticalAlign=bottom;rounded=0;entryX=0;entryY=0.75;entryDx=0;entryDy=0;" edge="1" parent="WIyWlLk6GJQsqaUBKTNV-1" source="grXvKpiBtCGuTxDAUHIj-48">
          <mxGeometry x="-0.9569" y="-5" relative="1" as="geometry">
            <mxPoint x="1200" y="967.5" as="sourcePoint" />
            <mxPoint x="270" y="50" as="targetPoint" />
            <Array as="points">
              <mxPoint x="710" y="968" />
              <mxPoint x="710" y="50" />
            </Array>
            <mxPoint as="offset" />
          </mxGeometry>
        </mxCell>
        <mxCell id="grXvKpiBtCGuTxDAUHIj-168" value="*" style="text;html=1;strokeColor=none;fillColor=none;align=center;verticalAlign=middle;whiteSpace=wrap;rounded=0;fontSize=27;" vertex="1" parent="WIyWlLk6GJQsqaUBKTNV-1">
          <mxGeometry x="270" width="90" height="70" as="geometry" />
        </mxCell>
        <mxCell id="grXvKpiBtCGuTxDAUHIj-169" value="Use" style="endArrow=open;endSize=12;dashed=1;html=1;rounded=0;exitX=0.5;exitY=1;exitDx=0;exitDy=0;" edge="1" parent="WIyWlLk6GJQsqaUBKTNV-1" source="grXvKpiBtCGuTxDAUHIj-103">
          <mxGeometry width="160" relative="1" as="geometry">
            <mxPoint x="1580" y="1560" as="sourcePoint" />
            <mxPoint x="3308" y="1480" as="targetPoint" />
            <Array as="points">
              <mxPoint x="1580" y="1760" />
              <mxPoint x="1780" y="1760" />
              <mxPoint x="2100" y="1760" />
              <mxPoint x="2260" y="1760" />
              <mxPoint x="2610" y="1760" />
              <mxPoint x="2960" y="1760" />
              <mxPoint x="3308" y="1760" />
            </Array>
          </mxGeometry>
        </mxCell>
        <mxCell id="grXvKpiBtCGuTxDAUHIj-170" value="Use" style="endArrow=open;endSize=12;dashed=1;html=1;rounded=0;exitX=0.5;exitY=1;exitDx=0;exitDy=0;" edge="1" parent="WIyWlLk6GJQsqaUBKTNV-1" source="grXvKpiBtCGuTxDAUHIj-102">
          <mxGeometry width="160" relative="1" as="geometry">
            <mxPoint x="1241" y="1600" as="sourcePoint" />
            <mxPoint x="2701" y="1480" as="targetPoint" />
            <Array as="points">
              <mxPoint x="1260" y="1650" />
              <mxPoint x="1260" y="1720" />
              <mxPoint x="1391" y="1720" />
              <mxPoint x="1721" y="1720" />
              <mxPoint x="2161" y="1720" />
              <mxPoint x="2331" y="1720" />
              <mxPoint x="2701" y="1720" />
              <mxPoint x="2701" y="1660" />
              <mxPoint x="2701" y="1620" />
              <mxPoint x="2701" y="1570" />
            </Array>
          </mxGeometry>
        </mxCell>
        <mxCell id="grXvKpiBtCGuTxDAUHIj-171" value="Use" style="endArrow=open;endSize=12;dashed=1;html=1;rounded=0;exitX=0.5;exitY=1;exitDx=0;exitDy=0;entryX=0.828;entryY=1.106;entryDx=0;entryDy=0;entryPerimeter=0;" edge="1" parent="WIyWlLk6GJQsqaUBKTNV-1" source="grXvKpiBtCGuTxDAUHIj-99" target="grXvKpiBtCGuTxDAUHIj-140">
          <mxGeometry width="160" relative="1" as="geometry">
            <mxPoint x="940" y="1440" as="sourcePoint" />
            <mxPoint x="2380" y="1480" as="targetPoint" />
            <Array as="points">
              <mxPoint x="940" y="1640" />
              <mxPoint x="1420" y="1640" />
              <mxPoint x="1850" y="1640" />
              <mxPoint x="2100" y="1640" />
              <mxPoint x="2100" y="1520" />
            </Array>
          </mxGeometry>
        </mxCell>
        <mxCell id="grXvKpiBtCGuTxDAUHIj-173" value="depends on" style="endArrow=open;endSize=12;dashed=1;html=1;rounded=0;exitX=0.106;exitY=0;exitDx=0;exitDy=0;exitPerimeter=0;" edge="1" parent="WIyWlLk6GJQsqaUBKTNV-1">
          <mxGeometry width="160" relative="1" as="geometry">
            <mxPoint x="2480.8599999999997" y="950" as="sourcePoint" />
            <mxPoint x="271" y="80" as="targetPoint" />
            <Array as="points">
              <mxPoint x="2481" y="290" />
              <mxPoint x="2481" y="170" />
              <mxPoint x="2481" y="80" />
              <mxPoint x="2431" y="80" />
              <mxPoint x="2361" y="80" />
              <mxPoint x="2211" y="80" />
              <mxPoint x="1941" y="80" />
              <mxPoint x="1411" y="80" />
              <mxPoint x="341" y="80" />
            </Array>
            <mxPoint as="offset" />
          </mxGeometry>
        </mxCell>
        <mxCell id="grXvKpiBtCGuTxDAUHIj-204" value="" style="endArrow=none;html=1;rounded=0;entryX=0.888;entryY=0.983;entryDx=0;entryDy=0;entryPerimeter=0;" edge="1" parent="WIyWlLk6GJQsqaUBKTNV-1" target="grXvKpiBtCGuTxDAUHIj-200">
          <mxGeometry width="50" height="50" relative="1" as="geometry">
            <mxPoint x="70" y="719" as="sourcePoint" />
            <mxPoint x="270" y="760" as="targetPoint" />
          </mxGeometry>
        </mxCell>
        <mxCell id="grXvKpiBtCGuTxDAUHIj-205" value="" style="endArrow=diamondThin;endFill=0;endSize=24;html=1;rounded=0;" edge="1" parent="WIyWlLk6GJQsqaUBKTNV-1">
          <mxGeometry width="160" relative="1" as="geometry">
            <mxPoint x="-1720" y="980" as="sourcePoint" />
            <mxPoint x="70" y="680" as="targetPoint" />
            <Array as="points">
              <mxPoint x="-1650" y="980" />
              <mxPoint x="-1650" y="680" />
            </Array>
          </mxGeometry>
        </mxCell>
        <mxCell id="grXvKpiBtCGuTxDAUHIj-206" value="Use" style="endArrow=open;endSize=12;dashed=1;html=1;rounded=0;entryX=-0.008;entryY=0.085;entryDx=0;entryDy=0;entryPerimeter=0;exitX=1.009;exitY=0.078;exitDx=0;exitDy=0;exitPerimeter=0;" edge="1" parent="WIyWlLk6GJQsqaUBKTNV-1" source="grXvKpiBtCGuTxDAUHIj-21" target="zkfFHV4jXpPFQw0GAbJ--0">
          <mxGeometry width="160" relative="1" as="geometry">
            <mxPoint x="-380" y="320" as="sourcePoint" />
            <mxPoint x="-220" y="320" as="targetPoint" />
            <Array as="points">
              <mxPoint x="-170" y="96" />
              <mxPoint y="96" />
              <mxPoint y="60" />
            </Array>
          </mxGeometry>
        </mxCell>
        <mxCell id="grXvKpiBtCGuTxDAUHIj-209" value="BankAccount" style="swimlane;whiteSpace=wrap;html=1;" vertex="1" parent="WIyWlLk6GJQsqaUBKTNV-1">
          <mxGeometry x="2540" y="470" width="460" height="200" as="geometry" />
        </mxCell>
        <mxCell id="zkfFHV4jXpPFQw0GAbJ--8" value="BankAccountBalance : double" style="text;align=left;verticalAlign=top;spacingLeft=4;spacingRight=4;overflow=hidden;rotatable=0;points=[[0,0.5],[1,0.5]];portConstraint=eastwest;rounded=0;shadow=0;html=0;" parent="grXvKpiBtCGuTxDAUHIj-209" vertex="1">
          <mxGeometry x="20" y="64" width="300" height="26" as="geometry" />
        </mxCell>
        <mxCell id="grXvKpiBtCGuTxDAUHIj-211" value="BankAccountType : Bank. which bank" style="text;html=1;strokeColor=none;fillColor=none;align=center;verticalAlign=middle;whiteSpace=wrap;rounded=0;" vertex="1" parent="grXvKpiBtCGuTxDAUHIj-209">
          <mxGeometry x="20" y="30" width="120" height="30" as="geometry" />
        </mxCell>
        <mxCell id="grXvKpiBtCGuTxDAUHIj-213" value="BankTransactionHistory : TransactionType []" style="text;html=1;strokeColor=none;fillColor=none;align=center;verticalAlign=middle;whiteSpace=wrap;rounded=0;" vertex="1" parent="grXvKpiBtCGuTxDAUHIj-209">
          <mxGeometry y="120" width="230" height="30" as="geometry" />
        </mxCell>
        <mxCell id="grXvKpiBtCGuTxDAUHIj-214" value="BankPIN : int" style="text;html=1;strokeColor=none;fillColor=none;align=center;verticalAlign=middle;whiteSpace=wrap;rounded=0;" vertex="1" parent="grXvKpiBtCGuTxDAUHIj-209">
          <mxGeometry x="30" y="90" width="90" height="30" as="geometry" />
        </mxCell>
        <mxCell id="grXvKpiBtCGuTxDAUHIj-215" value="BankLinkedServices : Services [ ] //wallets or credit cards" style="text;html=1;strokeColor=none;fillColor=none;align=center;verticalAlign=middle;whiteSpace=wrap;rounded=0;" vertex="1" parent="grXvKpiBtCGuTxDAUHIj-209">
          <mxGeometry x="10" y="150" width="160" height="30" as="geometry" />
        </mxCell>
        <mxCell id="grXvKpiBtCGuTxDAUHIj-218" value="BankAccountHolderName : String" style="text;html=1;strokeColor=none;fillColor=none;align=center;verticalAlign=middle;whiteSpace=wrap;rounded=0;" vertex="1" parent="grXvKpiBtCGuTxDAUHIj-209">
          <mxGeometry x="160" y="34" width="210" height="30" as="geometry" />
        </mxCell>
        <mxCell id="grXvKpiBtCGuTxDAUHIj-219" value="BankAccountHolderPhoneNumber : int" style="text;html=1;strokeColor=none;fillColor=none;align=center;verticalAlign=middle;whiteSpace=wrap;rounded=0;" vertex="1" parent="grXvKpiBtCGuTxDAUHIj-209">
          <mxGeometry x="130" y="85" width="240" height="30" as="geometry" />
        </mxCell>
        <mxCell id="grXvKpiBtCGuTxDAUHIj-216" value="WalletAccount" style="swimlane;whiteSpace=wrap;html=1;" vertex="1" parent="WIyWlLk6GJQsqaUBKTNV-1">
          <mxGeometry x="3320" y="440" width="280" height="200" as="geometry" />
        </mxCell>
        <mxCell id="grXvKpiBtCGuTxDAUHIj-217" value="WalletAccountType : WalletProvider" style="text;html=1;strokeColor=none;fillColor=none;align=center;verticalAlign=middle;whiteSpace=wrap;rounded=0;" vertex="1" parent="grXvKpiBtCGuTxDAUHIj-216">
          <mxGeometry x="35" y="40" width="210" height="30" as="geometry" />
        </mxCell>
        <mxCell id="grXvKpiBtCGuTxDAUHIj-220" value="WalletAccountHolderName : String" style="text;html=1;strokeColor=none;fillColor=none;align=center;verticalAlign=middle;whiteSpace=wrap;rounded=0;" vertex="1" parent="grXvKpiBtCGuTxDAUHIj-216">
          <mxGeometry x="20" y="85" width="190" height="30" as="geometry" />
        </mxCell>
        <mxCell id="grXvKpiBtCGuTxDAUHIj-221" value="WalletAccountHolderPhoneNumber : int" style="text;html=1;strokeColor=none;fillColor=none;align=center;verticalAlign=middle;whiteSpace=wrap;rounded=0;" vertex="1" parent="grXvKpiBtCGuTxDAUHIj-216">
          <mxGeometry x="5" y="115" width="220" height="30" as="geometry" />
        </mxCell>
        <mxCell id="grXvKpiBtCGuTxDAUHIj-222" value="WalletAccountBalance : double" style="text;html=1;strokeColor=none;fillColor=none;align=center;verticalAlign=middle;whiteSpace=wrap;rounded=0;" vertex="1" parent="grXvKpiBtCGuTxDAUHIj-216">
          <mxGeometry y="145" width="180" height="30" as="geometry" />
        </mxCell>
        <mxCell id="grXvKpiBtCGuTxDAUHIj-223" value="WalletTransactionHistory : TransactionType []" style="text;html=1;strokeColor=none;fillColor=none;align=center;verticalAlign=middle;whiteSpace=wrap;rounded=0;" vertex="1" parent="grXvKpiBtCGuTxDAUHIj-216">
          <mxGeometry x="5" y="170" width="250" height="30" as="geometry" />
        </mxCell>
        <mxCell id="grXvKpiBtCGuTxDAUHIj-224" value="WalletPIN : int" style="text;html=1;strokeColor=none;fillColor=none;align=center;verticalAlign=middle;whiteSpace=wrap;rounded=0;" vertex="1" parent="grXvKpiBtCGuTxDAUHIj-216">
          <mxGeometry x="35" y="20" width="90" height="30" as="geometry" />
        </mxCell>
        <mxCell id="grXvKpiBtCGuTxDAUHIj-225" value="WalletLinkedServices : Services []" style="text;html=1;strokeColor=none;fillColor=none;align=center;verticalAlign=middle;whiteSpace=wrap;rounded=0;" vertex="1" parent="grXvKpiBtCGuTxDAUHIj-216">
          <mxGeometry x="15" y="70" width="210" height="30" as="geometry" />
        </mxCell>
        <mxCell id="grXvKpiBtCGuTxDAUHIj-226" value="Services" style="swimlane;whiteSpace=wrap;html=1;" vertex="1" parent="WIyWlLk6GJQsqaUBKTNV-1">
          <mxGeometry x="1360" y="310" width="200" height="200" as="geometry" />
        </mxCell>
        <mxCell id="grXvKpiBtCGuTxDAUHIj-227" value="TransferToInstapayAccount" style="swimlane;whiteSpace=wrap;html=1;" vertex="1" parent="WIyWlLk6GJQsqaUBKTNV-1">
          <mxGeometry x="1030" y="580" width="220" height="200" as="geometry" />
        </mxCell>
        <mxCell id="grXvKpiBtCGuTxDAUHIj-241" value="//prerequisit: must be an instapay user" style="text;html=1;align=center;verticalAlign=middle;resizable=0;points=[];autosize=1;strokeColor=none;fillColor=none;" vertex="1" parent="grXvKpiBtCGuTxDAUHIj-227">
          <mxGeometry x="-10" y="40" width="230" height="30" as="geometry" />
        </mxCell>
        <mxCell id="grXvKpiBtCGuTxDAUHIj-228" value="TransferToBankAccount" style="swimlane;whiteSpace=wrap;html=1;" vertex="1" parent="WIyWlLk6GJQsqaUBKTNV-1">
          <mxGeometry x="1360" y="590" width="235" height="200" as="geometry" />
        </mxCell>
        <mxCell id="grXvKpiBtCGuTxDAUHIj-242" value="// not necessarily an instapay user" style="text;html=1;align=center;verticalAlign=middle;resizable=0;points=[];autosize=1;strokeColor=none;fillColor=none;" vertex="1" parent="grXvKpiBtCGuTxDAUHIj-228">
          <mxGeometry y="30" width="200" height="30" as="geometry" />
        </mxCell>
        <mxCell id="grXvKpiBtCGuTxDAUHIj-244" value="could be from bank or account user or wallet" style="text;html=1;align=center;verticalAlign=middle;resizable=0;points=[];autosize=1;strokeColor=none;fillColor=none;" vertex="1" parent="grXvKpiBtCGuTxDAUHIj-228">
          <mxGeometry x="-25" y="70" width="260" height="30" as="geometry" />
        </mxCell>
        <mxCell id="grXvKpiBtCGuTxDAUHIj-229" value="TransferToWallet" style="swimlane;whiteSpace=wrap;html=1;" vertex="1" parent="WIyWlLk6GJQsqaUBKTNV-1">
          <mxGeometry x="1630" y="600" width="250" height="200" as="geometry" />
        </mxCell>
        <mxCell id="grXvKpiBtCGuTxDAUHIj-245" value="// not necessarily an instapay user" style="text;html=1;align=center;verticalAlign=middle;resizable=0;points=[];autosize=1;strokeColor=none;fillColor=none;" vertex="1" parent="grXvKpiBtCGuTxDAUHIj-229">
          <mxGeometry y="40" width="200" height="30" as="geometry" />
        </mxCell>
        <mxCell id="grXvKpiBtCGuTxDAUHIj-246" value="could be from bank or account user or wallet" style="text;html=1;align=center;verticalAlign=middle;resizable=0;points=[];autosize=1;strokeColor=none;fillColor=none;" vertex="1" parent="grXvKpiBtCGuTxDAUHIj-229">
          <mxGeometry x="-10" y="90" width="260" height="30" as="geometry" />
        </mxCell>
        <mxCell id="grXvKpiBtCGuTxDAUHIj-230" value="PayBills" style="swimlane;whiteSpace=wrap;html=1;" vertex="1" parent="WIyWlLk6GJQsqaUBKTNV-1">
          <mxGeometry x="1960" y="600" width="200" height="200" as="geometry" />
        </mxCell>
        <mxCell id="grXvKpiBtCGuTxDAUHIj-231" value="" style="endArrow=classic;html=1;rounded=0;exitX=0.75;exitY=0;exitDx=0;exitDy=0;" edge="1" parent="WIyWlLk6GJQsqaUBKTNV-1" source="grXvKpiBtCGuTxDAUHIj-227">
          <mxGeometry width="50" height="50" relative="1" as="geometry">
            <mxPoint x="1340" y="570" as="sourcePoint" />
            <mxPoint x="1390" y="520" as="targetPoint" />
          </mxGeometry>
        </mxCell>
        <mxCell id="grXvKpiBtCGuTxDAUHIj-232" value="" style="endArrow=classic;html=1;rounded=0;exitX=0.385;exitY=-0.012;exitDx=0;exitDy=0;exitPerimeter=0;" edge="1" parent="WIyWlLk6GJQsqaUBKTNV-1" source="grXvKpiBtCGuTxDAUHIj-228">
          <mxGeometry width="50" height="50" relative="1" as="geometry">
            <mxPoint x="1620" y="640" as="sourcePoint" />
            <mxPoint x="1440" y="510" as="targetPoint" />
          </mxGeometry>
        </mxCell>
        <mxCell id="grXvKpiBtCGuTxDAUHIj-233" value="" style="endArrow=classic;html=1;rounded=0;entryX=0.75;entryY=1;entryDx=0;entryDy=0;exitX=0.306;exitY=0.002;exitDx=0;exitDy=0;exitPerimeter=0;" edge="1" parent="WIyWlLk6GJQsqaUBKTNV-1" source="grXvKpiBtCGuTxDAUHIj-229" target="grXvKpiBtCGuTxDAUHIj-226">
          <mxGeometry width="50" height="50" relative="1" as="geometry">
            <mxPoint x="1620" y="640" as="sourcePoint" />
            <mxPoint x="1670" y="590" as="targetPoint" />
          </mxGeometry>
        </mxCell>
        <mxCell id="grXvKpiBtCGuTxDAUHIj-234" value="" style="endArrow=classic;html=1;rounded=0;exitX=0.144;exitY=-0.027;exitDx=0;exitDy=0;exitPerimeter=0;entryX=1;entryY=1;entryDx=0;entryDy=0;" edge="1" parent="WIyWlLk6GJQsqaUBKTNV-1" source="grXvKpiBtCGuTxDAUHIj-230" target="grXvKpiBtCGuTxDAUHIj-226">
          <mxGeometry width="50" height="50" relative="1" as="geometry">
            <mxPoint x="1620" y="640" as="sourcePoint" />
            <mxPoint x="1915" y="450" as="targetPoint" />
          </mxGeometry>
        </mxCell>
        <mxCell id="grXvKpiBtCGuTxDAUHIj-235" value="Account" style="swimlane;whiteSpace=wrap;html=1;" vertex="1" parent="WIyWlLk6GJQsqaUBKTNV-1">
          <mxGeometry x="3070" y="95" width="200" height="220" as="geometry" />
        </mxCell>
        <mxCell id="grXvKpiBtCGuTxDAUHIj-238" value="" style="endArrow=classic;html=1;rounded=0;exitX=0.726;exitY=-0.023;exitDx=0;exitDy=0;exitPerimeter=0;" edge="1" parent="WIyWlLk6GJQsqaUBKTNV-1" source="grXvKpiBtCGuTxDAUHIj-209">
          <mxGeometry width="50" height="50" relative="1" as="geometry">
            <mxPoint x="2910" y="440" as="sourcePoint" />
            <mxPoint x="3150" y="320" as="targetPoint" />
          </mxGeometry>
        </mxCell>
        <mxCell id="grXvKpiBtCGuTxDAUHIj-239" value="" style="endArrow=classic;html=1;rounded=0;" edge="1" parent="WIyWlLk6GJQsqaUBKTNV-1">
          <mxGeometry width="50" height="50" relative="1" as="geometry">
            <mxPoint x="3400" y="430" as="sourcePoint" />
            <mxPoint x="3180" y="320" as="targetPoint" />
          </mxGeometry>
        </mxCell>
        <mxCell id="grXvKpiBtCGuTxDAUHIj-243" value="could be from bank or account user or wallet" style="text;html=1;align=center;verticalAlign=middle;resizable=0;points=[];autosize=1;strokeColor=none;fillColor=none;" vertex="1" parent="WIyWlLk6GJQsqaUBKTNV-1">
          <mxGeometry x="1010" y="658" width="260" height="30" as="geometry" />
        </mxCell>
        <mxCell id="grXvKpiBtCGuTxDAUHIj-247" value="Bill" style="swimlane;whiteSpace=wrap;html=1;" vertex="1" parent="WIyWlLk6GJQsqaUBKTNV-1">
          <mxGeometry x="4070" y="700" width="200" height="200" as="geometry" />
        </mxCell>
        <mxCell id="grXvKpiBtCGuTxDAUHIj-248" value="WaterBill" style="swimlane;whiteSpace=wrap;html=1;" vertex="1" parent="WIyWlLk6GJQsqaUBKTNV-1">
          <mxGeometry x="4400" y="1010" width="200" height="200" as="geometry" />
        </mxCell>
        <mxCell id="grXvKpiBtCGuTxDAUHIj-249" value="GasBill" style="swimlane;whiteSpace=wrap;html=1;" vertex="1" parent="WIyWlLk6GJQsqaUBKTNV-1">
          <mxGeometry x="3780" y="1025" width="200" height="200" as="geometry" />
        </mxCell>
        <mxCell id="grXvKpiBtCGuTxDAUHIj-250" value="ElictricityBill" style="swimlane;whiteSpace=wrap;html=1;" vertex="1" parent="WIyWlLk6GJQsqaUBKTNV-1">
          <mxGeometry x="4080" y="1015" width="200" height="200" as="geometry" />
        </mxCell>
        <mxCell id="grXvKpiBtCGuTxDAUHIj-251" value="" style="endArrow=classic;html=1;rounded=0;exitX=0.5;exitY=0;exitDx=0;exitDy=0;" edge="1" parent="WIyWlLk6GJQsqaUBKTNV-1" source="grXvKpiBtCGuTxDAUHIj-249">
          <mxGeometry width="50" height="50" relative="1" as="geometry">
            <mxPoint x="3950" y="960" as="sourcePoint" />
            <mxPoint x="4160" y="910" as="targetPoint" />
          </mxGeometry>
        </mxCell>
        <mxCell id="grXvKpiBtCGuTxDAUHIj-252" value="" style="endArrow=classic;html=1;rounded=0;" edge="1" parent="WIyWlLk6GJQsqaUBKTNV-1">
          <mxGeometry width="50" height="50" relative="1" as="geometry">
            <mxPoint x="4200" y="1010" as="sourcePoint" />
            <mxPoint x="4200" y="910" as="targetPoint" />
          </mxGeometry>
        </mxCell>
        <mxCell id="grXvKpiBtCGuTxDAUHIj-253" value="" style="endArrow=classic;html=1;rounded=0;entryX=0.75;entryY=1;entryDx=0;entryDy=0;" edge="1" parent="WIyWlLk6GJQsqaUBKTNV-1" target="grXvKpiBtCGuTxDAUHIj-247">
          <mxGeometry width="50" height="50" relative="1" as="geometry">
            <mxPoint x="4440" y="1000" as="sourcePoint" />
            <mxPoint x="4000" y="910" as="targetPoint" />
          </mxGeometry>
        </mxCell>
      </root>
    </mxGraphModel>
  </diagram>
  <diagram id="vEc9Ajh_WyuuZ4Iinmnb" name="Page-2">
    <mxGraphModel dx="5597" dy="4044" grid="0" gridSize="10" guides="1" tooltips="1" connect="1" arrows="1" fold="1" page="1" pageScale="1" pageWidth="827" pageHeight="1169" math="0" shadow="0">
      <root>
        <mxCell id="0" />
        <mxCell id="1" parent="0" />
        <mxCell id="MUxeNInKE-x90_JmVsaA-1" value="&lt;span style=&quot;font-weight: normal;&quot;&gt;&lt;i&gt;SignUp&lt;/i&gt;&lt;/span&gt;" style="swimlane;whiteSpace=wrap;html=1;startSize=23;" vertex="1" parent="1">
          <mxGeometry x="115" y="218" width="330" height="196" as="geometry" />
        </mxCell>
        <mxCell id="MUxeNInKE-x90_JmVsaA-2" value="&lt;i&gt;+ bool authenticateUser(user). //search database of bank or wallet&lt;/i&gt;" style="text;html=1;strokeColor=none;fillColor=none;align=left;verticalAlign=middle;whiteSpace=wrap;rounded=0;" vertex="1" parent="MUxeNInKE-x90_JmVsaA-1">
          <mxGeometry x="10" y="30" width="300" height="30" as="geometry" />
        </mxCell>
        <mxCell id="MUxeNInKE-x90_JmVsaA-3" value="void sendAndVerifyOTP(user) if user entered the mobile number connected to either bank account or waller then approve else decline" style="text;html=1;strokeColor=none;fillColor=none;align=center;verticalAlign=middle;whiteSpace=wrap;rounded=0;" vertex="1" parent="MUxeNInKE-x90_JmVsaA-1">
          <mxGeometry x="2.5" y="80" width="307.5" height="30" as="geometry" />
        </mxCell>
        <mxCell id="MUxeNInKE-x90_JmVsaA-4" value="bool enterUsername(Username)" style="text;html=1;strokeColor=none;fillColor=none;align=center;verticalAlign=middle;whiteSpace=wrap;rounded=0;" vertex="1" parent="MUxeNInKE-x90_JmVsaA-1">
          <mxGeometry x="-10" y="120" width="210" height="30" as="geometry" />
        </mxCell>
        <mxCell id="MUxeNInKE-x90_JmVsaA-5" value="void register(User user, String Username, String Password)" style="text;html=1;strokeColor=none;fillColor=none;align=center;verticalAlign=middle;whiteSpace=wrap;rounded=0;" vertex="1" parent="MUxeNInKE-x90_JmVsaA-1">
          <mxGeometry x="2.5" y="170" width="325" height="30" as="geometry" />
        </mxCell>
        <mxCell id="MUxeNInKE-x90_JmVsaA-6" value="&lt;span style=&quot;caret-color: rgb(0, 0, 0); color: rgb(0, 0, 0); font-family: Helvetica; font-size: 12px; font-style: normal; font-variant-caps: normal; font-weight: 400; letter-spacing: normal; text-align: center; text-indent: 0px; text-transform: none; word-spacing: 0px; -webkit-text-stroke-width: 0px; background-color: rgb(251, 251, 251); text-decoration: none; float: none; display: inline !important;&quot;&gt;bool enterPassword(Password)&lt;/span&gt;" style="text;html=1;strokeColor=none;fillColor=none;align=center;verticalAlign=middle;whiteSpace=wrap;rounded=0;" vertex="1" parent="MUxeNInKE-x90_JmVsaA-1">
          <mxGeometry x="-15" y="140" width="220" height="30" as="geometry" />
        </mxCell>
        <mxCell id="0vDc6a730J-DasmxMAeY-8" value="obj : InstaPayDB" style="text;html=1;strokeColor=none;fillColor=none;align=center;verticalAlign=middle;whiteSpace=wrap;rounded=0;" vertex="1" parent="MUxeNInKE-x90_JmVsaA-1">
          <mxGeometry x="200" y="115" width="122" height="30" as="geometry" />
        </mxCell>
        <mxCell id="Kq1tDz6jR_WxzNC02Re8-1" value="&amp;lt;&amp;lt;&lt;i&gt;Abstract&amp;gt;&amp;gt;&lt;/i&gt;" style="text;html=1;strokeColor=none;fillColor=none;align=center;verticalAlign=middle;whiteSpace=wrap;rounded=0;" vertex="1" parent="1">
          <mxGeometry x="142" y="178" width="60" height="30" as="geometry" />
        </mxCell>
        <mxCell id="o4Q4IJrpPErYLEYsCG5a-1" value="SignIn" style="swimlane;whiteSpace=wrap;html=1;fontStyle=2" vertex="1" parent="1">
          <mxGeometry x="779" y="208" width="237" height="200" as="geometry" />
        </mxCell>
        <mxCell id="o4Q4IJrpPErYLEYsCG5a-6" value="bool authenticateUser(user) //search database of instapay system" style="text;html=1;strokeColor=none;fillColor=none;align=center;verticalAlign=middle;whiteSpace=wrap;rounded=0;fontStyle=0" vertex="1" parent="o4Q4IJrpPErYLEYsCG5a-1">
          <mxGeometry x="9" y="89" width="211" height="30" as="geometry" />
        </mxCell>
        <mxCell id="o4Q4IJrpPErYLEYsCG5a-7" value="&lt;i&gt;void loadUserProfile(user)&lt;/i&gt;" style="text;html=1;strokeColor=none;fillColor=none;align=center;verticalAlign=middle;whiteSpace=wrap;rounded=0;" vertex="1" parent="o4Q4IJrpPErYLEYsCG5a-1">
          <mxGeometry x="23" y="132" width="148" height="30" as="geometry" />
        </mxCell>
        <mxCell id="58ZHKR6eYXy5uYicXSRX-6" value="void SignIn(User user)" style="text;html=1;strokeColor=none;fillColor=none;align=center;verticalAlign=middle;whiteSpace=wrap;rounded=0;" vertex="1" parent="o4Q4IJrpPErYLEYsCG5a-1">
          <mxGeometry x="31" y="162" width="124" height="30" as="geometry" />
        </mxCell>
        <mxCell id="0vDc6a730J-DasmxMAeY-7" value="obj : InstaPayDB" style="text;html=1;strokeColor=none;fillColor=none;align=center;verticalAlign=middle;whiteSpace=wrap;rounded=0;" vertex="1" parent="o4Q4IJrpPErYLEYsCG5a-1">
          <mxGeometry x="48" y="37" width="100" height="30" as="geometry" />
        </mxCell>
        <mxCell id="o4Q4IJrpPErYLEYsCG5a-8" value="//template method" style="text;html=1;strokeColor=none;fillColor=none;align=center;verticalAlign=middle;whiteSpace=wrap;rounded=0;" vertex="1" parent="1">
          <mxGeometry x="258" y="134" width="60" height="30" as="geometry" />
        </mxCell>
        <mxCell id="bJcE_S4KiYRshyrRUAwU-1" value="&lt;span style=&quot;font-weight: normal;&quot;&gt;BankAccountSignUp&lt;/span&gt;" style="swimlane;whiteSpace=wrap;html=1;" vertex="1" parent="1">
          <mxGeometry x="-44" y="471" width="220" height="200" as="geometry" />
        </mxCell>
        <mxCell id="bJcE_S4KiYRshyrRUAwU-2" value="&lt;span style=&quot;border-color: var(--border-color); font-style: normal;&quot;&gt;+ bool authenticateUser(user)&lt;br&gt;//must add user to instapaydb after signing up successfully&lt;br&gt;&lt;/span&gt;" style="text;html=1;strokeColor=none;fillColor=none;align=left;verticalAlign=middle;whiteSpace=wrap;rounded=0;fontStyle=2" vertex="1" parent="bJcE_S4KiYRshyrRUAwU-1">
          <mxGeometry x="3" y="99" width="330" height="30" as="geometry" />
        </mxCell>
        <mxCell id="KmFIlaP1W1c74c6rBXKz-17" value="BankDB : User []" style="text;html=1;strokeColor=none;fillColor=none;align=center;verticalAlign=middle;whiteSpace=wrap;rounded=0;" vertex="1" parent="bJcE_S4KiYRshyrRUAwU-1">
          <mxGeometry x="33" y="54" width="129" height="30" as="geometry" />
        </mxCell>
        <mxCell id="58ZHKR6eYXy5uYicXSRX-1" value="&lt;span style=&quot;font-weight: normal;&quot;&gt;WalletAccountSignUp&lt;/span&gt;" style="swimlane;whiteSpace=wrap;html=1;" vertex="1" parent="1">
          <mxGeometry x="354" y="471" width="200" height="200" as="geometry" />
        </mxCell>
        <mxCell id="58ZHKR6eYXy5uYicXSRX-2" value="+ bool authenticateUser(user)" style="text;html=1;strokeColor=none;fillColor=none;align=center;verticalAlign=middle;whiteSpace=wrap;rounded=0;" vertex="1" parent="58ZHKR6eYXy5uYicXSRX-1">
          <mxGeometry x="-84" y="99" width="320" height="30" as="geometry" />
        </mxCell>
        <mxCell id="KmFIlaP1W1c74c6rBXKz-18" value="WalletDB : User []" style="text;html=1;strokeColor=none;fillColor=none;align=center;verticalAlign=middle;whiteSpace=wrap;rounded=0;" vertex="1" parent="58ZHKR6eYXy5uYicXSRX-1">
          <mxGeometry x="46.5" y="50" width="107" height="30" as="geometry" />
        </mxCell>
        <mxCell id="58ZHKR6eYXy5uYicXSRX-3" value="Extends" style="endArrow=block;endSize=16;endFill=0;html=1;rounded=0;entryX=0.426;entryY=1.1;entryDx=0;entryDy=0;entryPerimeter=0;" edge="1" parent="1" target="MUxeNInKE-x90_JmVsaA-5">
          <mxGeometry width="160" relative="1" as="geometry">
            <mxPoint x="95" y="469" as="sourcePoint" />
            <mxPoint x="518" y="427" as="targetPoint" />
          </mxGeometry>
        </mxCell>
        <mxCell id="58ZHKR6eYXy5uYicXSRX-4" value="Extends" style="endArrow=block;endSize=16;endFill=0;html=1;rounded=0;exitX=0.5;exitY=0;exitDx=0;exitDy=0;entryX=0.438;entryY=1.067;entryDx=0;entryDy=0;entryPerimeter=0;" edge="1" parent="1" source="58ZHKR6eYXy5uYicXSRX-1" target="MUxeNInKE-x90_JmVsaA-5">
          <mxGeometry width="160" relative="1" as="geometry">
            <mxPoint x="358" y="427" as="sourcePoint" />
            <mxPoint x="518" y="427" as="targetPoint" />
          </mxGeometry>
        </mxCell>
        <mxCell id="58ZHKR6eYXy5uYicXSRX-5" value="//template method" style="text;html=1;strokeColor=none;fillColor=none;align=center;verticalAlign=middle;whiteSpace=wrap;rounded=0;" vertex="1" parent="1">
          <mxGeometry x="1004" y="151" width="60" height="30" as="geometry" />
        </mxCell>
        <mxCell id="58ZHKR6eYXy5uYicXSRX-8" value="BankUserSignIn" style="swimlane;whiteSpace=wrap;html=1;" vertex="1" parent="1">
          <mxGeometry x="667" y="473" width="200" height="200" as="geometry" />
        </mxCell>
        <mxCell id="58ZHKR6eYXy5uYicXSRX-10" value="&lt;span style=&quot;border-color: var(--border-color);&quot;&gt;void loadUserProfile(user)&lt;/span&gt;" style="text;html=1;strokeColor=none;fillColor=none;align=center;verticalAlign=middle;whiteSpace=wrap;rounded=0;" vertex="1" parent="58ZHKR6eYXy5uYicXSRX-8">
          <mxGeometry x="27" y="45" width="148" height="30" as="geometry" />
        </mxCell>
        <mxCell id="58ZHKR6eYXy5uYicXSRX-9" value="WalletUserSignIn" style="swimlane;whiteSpace=wrap;html=1;" vertex="1" parent="1">
          <mxGeometry x="980" y="473" width="200" height="200" as="geometry" />
        </mxCell>
        <mxCell id="58ZHKR6eYXy5uYicXSRX-11" value="&lt;span style=&quot;border-color: var(--border-color);&quot;&gt;void loadUserProfile(user)&lt;/span&gt;" style="text;html=1;strokeColor=none;fillColor=none;align=center;verticalAlign=middle;whiteSpace=wrap;rounded=0;" vertex="1" parent="58ZHKR6eYXy5uYicXSRX-9">
          <mxGeometry x="31" y="47" width="146" height="30" as="geometry" />
        </mxCell>
        <mxCell id="58ZHKR6eYXy5uYicXSRX-12" value="Extends" style="endArrow=block;endSize=16;endFill=0;html=1;rounded=0;entryX=0.5;entryY=1;entryDx=0;entryDy=0;exitX=0.45;exitY=0;exitDx=0;exitDy=0;exitPerimeter=0;" edge="1" parent="1" source="58ZHKR6eYXy5uYicXSRX-8" target="o4Q4IJrpPErYLEYsCG5a-1">
          <mxGeometry width="160" relative="1" as="geometry">
            <mxPoint x="658" y="422" as="sourcePoint" />
            <mxPoint x="818" y="422" as="targetPoint" />
          </mxGeometry>
        </mxCell>
        <mxCell id="58ZHKR6eYXy5uYicXSRX-13" value="Extends" style="endArrow=block;endSize=16;endFill=0;html=1;rounded=0;exitX=0.5;exitY=0;exitDx=0;exitDy=0;" edge="1" parent="1" source="58ZHKR6eYXy5uYicXSRX-9">
          <mxGeometry width="160" relative="1" as="geometry">
            <mxPoint x="658" y="422" as="sourcePoint" />
            <mxPoint x="898" y="410" as="targetPoint" />
          </mxGeometry>
        </mxCell>
        <mxCell id="KmFIlaP1W1c74c6rBXKz-3" value="&amp;lt;&amp;lt;&lt;i&gt;Abstract&amp;gt;&amp;gt;&lt;/i&gt;" style="text;html=1;strokeColor=none;fillColor=none;align=center;verticalAlign=middle;whiteSpace=wrap;rounded=0;" vertex="1" parent="1">
          <mxGeometry x="911" y="164" width="60" height="30" as="geometry" />
        </mxCell>
        <mxCell id="pwfiZXghHuNEz8G7wfVU-1" value="User ??" style="swimlane;fontStyle=0;align=center;verticalAlign=top;childLayout=stackLayout;horizontal=1;startSize=26;horizontalStack=0;resizeParent=1;resizeLast=0;collapsible=1;marginBottom=0;rounded=0;shadow=0;strokeWidth=1;" vertex="1" parent="1">
          <mxGeometry x="1654" y="167" width="233" height="329" as="geometry">
            <mxRectangle x="230" y="140" width="160" height="26" as="alternateBounds" />
          </mxGeometry>
        </mxCell>
        <mxCell id="pwfiZXghHuNEz8G7wfVU-2" value="Name : String" style="text;html=1;strokeColor=none;fillColor=none;align=left;verticalAlign=middle;whiteSpace=wrap;rounded=0;" vertex="1" parent="pwfiZXghHuNEz8G7wfVU-1">
          <mxGeometry y="26" width="233" height="30" as="geometry" />
        </mxCell>
        <mxCell id="pwfiZXghHuNEz8G7wfVU-3" value="MobileNumber : int" style="text;align=left;verticalAlign=top;spacingLeft=4;spacingRight=4;overflow=hidden;rotatable=0;points=[[0,0.5],[1,0.5]];portConstraint=eastwest;rounded=0;shadow=0;html=0;" vertex="1" parent="pwfiZXghHuNEz8G7wfVU-1">
          <mxGeometry y="56" width="233" height="26" as="geometry" />
        </mxCell>
        <mxCell id="pwfiZXghHuNEz8G7wfVU-4" value="accounts : Account []" style="text;html=1;strokeColor=none;fillColor=none;align=left;verticalAlign=middle;whiteSpace=wrap;rounded=0;" vertex="1" parent="pwfiZXghHuNEz8G7wfVU-1">
          <mxGeometry y="82" width="233" height="30" as="geometry" />
        </mxCell>
        <mxCell id="pwfiZXghHuNEz8G7wfVU-5" value="- UserName : String" style="text;align=left;verticalAlign=middle;spacingLeft=4;spacingRight=4;overflow=hidden;rotatable=0;points=[[0,0.5],[1,0.5]];portConstraint=eastwest;" vertex="1" parent="pwfiZXghHuNEz8G7wfVU-1">
          <mxGeometry y="112" width="233" height="26" as="geometry" />
        </mxCell>
        <mxCell id="pwfiZXghHuNEz8G7wfVU-6" value="Password : String" style="text;html=1;strokeColor=none;fillColor=none;align=left;verticalAlign=middle;whiteSpace=wrap;rounded=0;" vertex="1" parent="pwfiZXghHuNEz8G7wfVU-1">
          <mxGeometry y="138" width="233" height="30" as="geometry" />
        </mxCell>
        <mxCell id="pwfiZXghHuNEz8G7wfVU-7" value="void setName(String Name)" style="text;html=1;strokeColor=none;fillColor=none;align=left;verticalAlign=middle;whiteSpace=wrap;rounded=0;" vertex="1" parent="pwfiZXghHuNEz8G7wfVU-1">
          <mxGeometry y="168" width="233" height="30" as="geometry" />
        </mxCell>
        <mxCell id="pwfiZXghHuNEz8G7wfVU-8" value="String getName()" style="text;html=1;strokeColor=none;fillColor=none;align=left;verticalAlign=middle;whiteSpace=wrap;rounded=0;" vertex="1" parent="pwfiZXghHuNEz8G7wfVU-1">
          <mxGeometry y="198" width="233" height="30" as="geometry" />
        </mxCell>
        <mxCell id="pwfiZXghHuNEz8G7wfVU-9" value="void setPhoneNumber(int PhoneNumber)" style="text;html=1;strokeColor=none;fillColor=none;align=left;verticalAlign=middle;whiteSpace=wrap;rounded=0;" vertex="1" parent="pwfiZXghHuNEz8G7wfVU-1">
          <mxGeometry y="228" width="233" height="30" as="geometry" />
        </mxCell>
        <mxCell id="0vDc6a730J-DasmxMAeY-12" value="&lt;span style=&quot;caret-color: rgb(0, 0, 0); color: rgb(0, 0, 0); font-family: Helvetica; font-size: 12px; font-style: normal; font-variant-caps: normal; font-weight: 400; letter-spacing: normal; text-indent: 0px; text-transform: none; word-spacing: 0px; -webkit-text-stroke-width: 0px; background-color: rgb(251, 251, 251); text-decoration: none; float: none; display: inline !important;&quot;&gt;int getPhoneNumber()&lt;/span&gt;" style="text;html=1;strokeColor=none;fillColor=none;align=left;verticalAlign=middle;whiteSpace=wrap;rounded=0;" vertex="1" parent="pwfiZXghHuNEz8G7wfVU-1">
          <mxGeometry y="258" width="233" height="30" as="geometry" />
        </mxCell>
        <mxCell id="0vDc6a730J-DasmxMAeY-13" value="&lt;i&gt;void requestService(Service obj)&lt;/i&gt;" style="text;html=1;strokeColor=none;fillColor=none;align=left;verticalAlign=middle;whiteSpace=wrap;rounded=0;" vertex="1" parent="pwfiZXghHuNEz8G7wfVU-1">
          <mxGeometry y="288" width="233" height="30" as="geometry" />
        </mxCell>
        <mxCell id="Z_y20KfUwHaEsKIr2w9J-1" value="BankCustomer" style="swimlane;fontStyle=0;align=center;verticalAlign=top;childLayout=stackLayout;horizontal=1;startSize=26;horizontalStack=0;resizeParent=1;resizeLast=0;collapsible=1;marginBottom=0;rounded=0;shadow=0;strokeWidth=1;" vertex="1" parent="1">
          <mxGeometry x="1479" y="560" width="300" height="206" as="geometry">
            <mxRectangle x="130" y="380" width="160" height="26" as="alternateBounds" />
          </mxGeometry>
        </mxCell>
        <mxCell id="Z_y20KfUwHaEsKIr2w9J-2" value="" style="line;html=1;strokeWidth=1;align=left;verticalAlign=middle;spacingTop=-1;spacingLeft=3;spacingRight=3;rotatable=0;labelPosition=right;points=[];portConstraint=eastwest;" vertex="1" parent="Z_y20KfUwHaEsKIr2w9J-1">
          <mxGeometry y="26" width="300" height="8" as="geometry" />
        </mxCell>
        <mxCell id="Z_y20KfUwHaEsKIr2w9J-3" value="void setAccounts(int BankAccount)&amp;nbsp;" style="text;html=1;strokeColor=none;fillColor=none;align=left;verticalAlign=middle;whiteSpace=wrap;rounded=0;" vertex="1" parent="Z_y20KfUwHaEsKIr2w9J-1">
          <mxGeometry y="34" width="300" height="30" as="geometry" />
        </mxCell>
        <mxCell id="Z_y20KfUwHaEsKIr2w9J-4" value="int getBankAccount()" style="text;html=1;strokeColor=none;fillColor=none;align=left;verticalAlign=middle;whiteSpace=wrap;rounded=0;" vertex="1" parent="Z_y20KfUwHaEsKIr2w9J-1">
          <mxGeometry y="64" width="300" height="30" as="geometry" />
        </mxCell>
        <mxCell id="Z_y20KfUwHaEsKIr2w9J-5" value="void setAccountBalance(double AccountBalance)" style="text;html=1;strokeColor=none;fillColor=none;align=left;verticalAlign=middle;whiteSpace=wrap;rounded=0;" vertex="1" parent="Z_y20KfUwHaEsKIr2w9J-1">
          <mxGeometry y="94" width="300" height="30" as="geometry" />
        </mxCell>
        <mxCell id="Z_y20KfUwHaEsKIr2w9J-6" value="double getAccountBalance()" style="text;html=1;strokeColor=none;fillColor=none;align=left;verticalAlign=middle;whiteSpace=wrap;rounded=0;" vertex="1" parent="Z_y20KfUwHaEsKIr2w9J-1">
          <mxGeometry y="124" width="300" height="30" as="geometry" />
        </mxCell>
        <mxCell id="0vDc6a730J-DasmxMAeY-14" value="&lt;span style=&quot;border-color: var(--border-color);&quot;&gt;void requestService(Service obj)&lt;/span&gt;" style="text;html=1;strokeColor=none;fillColor=none;align=left;verticalAlign=middle;whiteSpace=wrap;rounded=0;" vertex="1" parent="Z_y20KfUwHaEsKIr2w9J-1">
          <mxGeometry y="154" width="300" height="30" as="geometry" />
        </mxCell>
        <mxCell id="SvuJsbFp_vzGYtpS0Mpd-1" value="WalletUser ??" style="swimlane;fontStyle=0;align=center;verticalAlign=top;childLayout=stackLayout;horizontal=1;startSize=26;horizontalStack=0;resizeParent=1;resizeLast=0;collapsible=1;marginBottom=0;rounded=0;shadow=0;strokeWidth=1;" vertex="1" parent="1">
          <mxGeometry x="1936" y="582" width="260" height="124" as="geometry">
            <mxRectangle x="340" y="380" width="170" height="26" as="alternateBounds" />
          </mxGeometry>
        </mxCell>
        <mxCell id="SvuJsbFp_vzGYtpS0Mpd-2" value="" style="line;html=1;strokeWidth=1;align=left;verticalAlign=middle;spacingTop=-1;spacingLeft=3;spacingRight=3;rotatable=0;labelPosition=right;points=[];portConstraint=eastwest;" vertex="1" parent="SvuJsbFp_vzGYtpS0Mpd-1">
          <mxGeometry y="26" width="260" height="8" as="geometry" />
        </mxCell>
        <mxCell id="SvuJsbFp_vzGYtpS0Mpd-3" value="void setWalletBalance(double WalletBalance)" style="text;html=1;strokeColor=none;fillColor=none;align=left;verticalAlign=middle;whiteSpace=wrap;rounded=0;" vertex="1" parent="SvuJsbFp_vzGYtpS0Mpd-1">
          <mxGeometry y="34" width="260" height="30" as="geometry" />
        </mxCell>
        <mxCell id="SvuJsbFp_vzGYtpS0Mpd-4" value="double getWalletBalance()" style="text;html=1;strokeColor=none;fillColor=none;align=left;verticalAlign=middle;whiteSpace=wrap;rounded=0;" vertex="1" parent="SvuJsbFp_vzGYtpS0Mpd-1">
          <mxGeometry y="64" width="260" height="30" as="geometry" />
        </mxCell>
        <mxCell id="0vDc6a730J-DasmxMAeY-15" value="void requestService(Service obj)" style="text;html=1;strokeColor=none;fillColor=none;align=left;verticalAlign=middle;whiteSpace=wrap;rounded=0;" vertex="1" parent="SvuJsbFp_vzGYtpS0Mpd-1">
          <mxGeometry y="94" width="260" height="30" as="geometry" />
        </mxCell>
        <mxCell id="SvuJsbFp_vzGYtpS0Mpd-5" value="Extends" style="endArrow=block;endSize=16;endFill=0;html=1;rounded=0;exitX=0.5;exitY=0;exitDx=0;exitDy=0;entryX=0.5;entryY=1;entryDx=0;entryDy=0;" edge="1" parent="1" source="Z_y20KfUwHaEsKIr2w9J-1">
          <mxGeometry width="160" relative="1" as="geometry">
            <mxPoint x="1760" y="424" as="sourcePoint" />
            <mxPoint x="1770.5" y="496" as="targetPoint" />
          </mxGeometry>
        </mxCell>
        <mxCell id="SvuJsbFp_vzGYtpS0Mpd-6" value="Extends" style="endArrow=block;endSize=16;endFill=0;html=1;rounded=0;exitX=0.5;exitY=0;exitDx=0;exitDy=0;entryX=0.5;entryY=1;entryDx=0;entryDy=0;" edge="1" parent="1" source="SvuJsbFp_vzGYtpS0Mpd-1">
          <mxGeometry width="160" relative="1" as="geometry">
            <mxPoint x="1760" y="424" as="sourcePoint" />
            <mxPoint x="1770.5" y="496" as="targetPoint" />
          </mxGeometry>
        </mxCell>
        <mxCell id="SpfyjW3OqlmxruHMp7XD-1" value="&lt;i&gt;Services&lt;/i&gt;" style="swimlane;whiteSpace=wrap;html=1;" vertex="1" parent="1">
          <mxGeometry x="1378" y="969" width="539" height="200" as="geometry" />
        </mxCell>
        <mxCell id="KsdIsXIeYY-TfjQH6sST-9" value="void transferAmount(BankAPI obj, Account obj1, Account obj2, double Amount)" style="text;html=1;strokeColor=none;fillColor=none;align=center;verticalAlign=middle;whiteSpace=wrap;rounded=0;" vertex="1" parent="SpfyjW3OqlmxruHMp7XD-1">
          <mxGeometry x="7" y="45" width="474" height="30" as="geometry" />
        </mxCell>
        <mxCell id="qsixME9-YWa4jMy3PyWG-1" value="TransferToInstapayAccount" style="swimlane;whiteSpace=wrap;html=1;" vertex="1" parent="1">
          <mxGeometry x="858" y="1270" width="410" height="200" as="geometry" />
        </mxCell>
        <mxCell id="qsixME9-YWa4jMy3PyWG-2" value="//prerequisit: must be an instapay user,&lt;br&gt;if so, then choose any method to transfer from" style="text;html=1;align=center;verticalAlign=middle;resizable=0;points=[];autosize=1;strokeColor=none;fillColor=none;" vertex="1" parent="qsixME9-YWa4jMy3PyWG-1">
          <mxGeometry x="30" y="36" width="263" height="40" as="geometry" />
        </mxCell>
        <mxCell id="0vDc6a730J-DasmxMAeY-16" value="void transferToIPAccount(Account obj1, Account obj2, double Amount)" style="text;html=1;strokeColor=none;fillColor=none;align=center;verticalAlign=middle;whiteSpace=wrap;rounded=0;" vertex="1" parent="qsixME9-YWa4jMy3PyWG-1">
          <mxGeometry x="2" y="79" width="408" height="30" as="geometry" />
        </mxCell>
        <mxCell id="0vDc6a730J-DasmxMAeY-23" value="//Transferring to bank account is only valid for users registered using their bank account." style="text;html=1;strokeColor=none;fillColor=none;align=center;verticalAlign=middle;whiteSpace=wrap;rounded=0;" vertex="1" parent="qsixME9-YWa4jMy3PyWG-1">
          <mxGeometry x="94" y="132" width="209" height="30" as="geometry" />
        </mxCell>
        <mxCell id="cMVmQdqipfHNTdBQc1-i-1" value="TransferToBankAccount" style="swimlane;whiteSpace=wrap;html=1;" vertex="1" parent="1">
          <mxGeometry x="1282" y="1270" width="405" height="200" as="geometry" />
        </mxCell>
        <mxCell id="0vDc6a730J-DasmxMAeY-17" value="void transferToBankAccount(BankAPI obj, Account obj1, Account obj2, double Amount)" style="text;html=1;strokeColor=none;fillColor=none;align=center;verticalAlign=middle;whiteSpace=wrap;rounded=0;" vertex="1" parent="cMVmQdqipfHNTdBQc1-i-1">
          <mxGeometry x="-13" y="107" width="431" height="30" as="geometry" />
        </mxCell>
        <mxCell id="0vDc6a730J-DasmxMAeY-18" value="//should be to bank account only, if so, the one transferring should be a bank user only" style="text;html=1;strokeColor=none;fillColor=none;align=center;verticalAlign=middle;whiteSpace=wrap;rounded=0;" vertex="1" parent="cMVmQdqipfHNTdBQc1-i-1">
          <mxGeometry x="53" y="57" width="249" height="30" as="geometry" />
        </mxCell>
        <mxCell id="0vDc6a730J-DasmxMAeY-24" value="//Transferring to bank account is only valid for users registered using their bank account." style="text;html=1;strokeColor=none;fillColor=none;align=center;verticalAlign=middle;whiteSpace=wrap;rounded=0;" vertex="1" parent="cMVmQdqipfHNTdBQc1-i-1">
          <mxGeometry x="83" y="157" width="208" height="30" as="geometry" />
        </mxCell>
        <mxCell id="lhsA0viCCkEYzmNgwZjW-1" value="TransferToWallet" style="swimlane;whiteSpace=wrap;html=1;" vertex="1" parent="1">
          <mxGeometry x="1716" y="1272" width="390" height="200" as="geometry" />
        </mxCell>
        <mxCell id="lhsA0viCCkEYzmNgwZjW-2" value="//check for all the accounts he has,&lt;br&gt;&amp;nbsp;if one of them has the phone number he provided,&lt;br&gt;&amp;nbsp;then choose one of them and transfer from it" style="text;html=1;align=center;verticalAlign=middle;resizable=0;points=[];autosize=1;strokeColor=none;fillColor=none;" vertex="1" parent="lhsA0viCCkEYzmNgwZjW-1">
          <mxGeometry x="23" y="39" width="287" height="54" as="geometry" />
        </mxCell>
        <mxCell id="0vDc6a730J-DasmxMAeY-19" value="void transferToWallefAccount(BankAPI obj, Account obj1, Account obj2, double Amount)" style="text;html=1;strokeColor=none;fillColor=none;align=center;verticalAlign=middle;whiteSpace=wrap;rounded=0;" vertex="1" parent="lhsA0viCCkEYzmNgwZjW-1">
          <mxGeometry y="128" width="386" height="30" as="geometry" />
        </mxCell>
        <mxCell id="0vDc6a730J-DasmxMAeY-25" value="//Transferring to bank account is only valid for users registered using their bank account." style="text;html=1;strokeColor=none;fillColor=none;align=center;verticalAlign=middle;whiteSpace=wrap;rounded=0;" vertex="1" parent="lhsA0viCCkEYzmNgwZjW-1">
          <mxGeometry x="53" y="170" width="209" height="30" as="geometry" />
        </mxCell>
        <mxCell id="Rk4ULX0B2zXydxTI1WOa-1" value="PayBills" style="swimlane;whiteSpace=wrap;html=1;" vertex="1" parent="1">
          <mxGeometry x="2151" y="1272" width="420" height="200" as="geometry" />
        </mxCell>
        <mxCell id="NrehxM2VAJIx9OM1hYtv-8" value="bill : Bill []" style="text;html=1;strokeColor=none;fillColor=none;align=center;verticalAlign=middle;whiteSpace=wrap;rounded=0;" vertex="1" parent="Rk4ULX0B2zXydxTI1WOa-1">
          <mxGeometry x="28" y="40" width="155" height="30" as="geometry" />
        </mxCell>
        <mxCell id="0vDc6a730J-DasmxMAeY-20" value="void transferToIPAccount(BankAPI obj, Account obj1, Account obj2, double Amount)" style="text;html=1;strokeColor=none;fillColor=none;align=center;verticalAlign=middle;whiteSpace=wrap;rounded=0;" vertex="1" parent="Rk4ULX0B2zXydxTI1WOa-1">
          <mxGeometry x="23" y="93" width="394" height="30" as="geometry" />
        </mxCell>
        <mxCell id="0vDc6a730J-DasmxMAeY-26" value="//Transferring to bank account is only valid for users registered using their bank account." style="text;html=1;strokeColor=none;fillColor=none;align=center;verticalAlign=middle;whiteSpace=wrap;rounded=0;" vertex="1" parent="Rk4ULX0B2zXydxTI1WOa-1">
          <mxGeometry x="94" y="141" width="226" height="30" as="geometry" />
        </mxCell>
        <mxCell id="Rk4ULX0B2zXydxTI1WOa-3" value="Extends" style="endArrow=block;endSize=16;endFill=0;html=1;rounded=0;exitX=0.5;exitY=0;exitDx=0;exitDy=0;entryX=0.5;entryY=1;entryDx=0;entryDy=0;" edge="1" parent="1" source="qsixME9-YWa4jMy3PyWG-1" target="SpfyjW3OqlmxruHMp7XD-1">
          <mxGeometry width="160" relative="1" as="geometry">
            <mxPoint x="1680" y="1183" as="sourcePoint" />
            <mxPoint x="1840" y="1183" as="targetPoint" />
          </mxGeometry>
        </mxCell>
        <mxCell id="Rk4ULX0B2zXydxTI1WOa-4" value="Extends" style="endArrow=block;endSize=16;endFill=0;html=1;rounded=0;exitX=0.5;exitY=0;exitDx=0;exitDy=0;" edge="1" parent="1" source="cMVmQdqipfHNTdBQc1-i-1">
          <mxGeometry width="160" relative="1" as="geometry">
            <mxPoint x="1680" y="1183" as="sourcePoint" />
            <mxPoint x="1655" y="1175" as="targetPoint" />
          </mxGeometry>
        </mxCell>
        <mxCell id="Rk4ULX0B2zXydxTI1WOa-5" value="Extends" style="endArrow=block;endSize=16;endFill=0;html=1;rounded=0;exitX=0.5;exitY=0;exitDx=0;exitDy=0;" edge="1" parent="1" source="lhsA0viCCkEYzmNgwZjW-1">
          <mxGeometry width="160" relative="1" as="geometry">
            <mxPoint x="1680" y="1183" as="sourcePoint" />
            <mxPoint x="1656" y="1174" as="targetPoint" />
          </mxGeometry>
        </mxCell>
        <mxCell id="Rk4ULX0B2zXydxTI1WOa-6" value="Extends" style="endArrow=block;endSize=16;endFill=0;html=1;rounded=0;exitX=0.5;exitY=0;exitDx=0;exitDy=0;" edge="1" parent="1" source="Rk4ULX0B2zXydxTI1WOa-1">
          <mxGeometry width="160" relative="1" as="geometry">
            <mxPoint x="1680" y="1183" as="sourcePoint" />
            <mxPoint x="1658" y="1172" as="targetPoint" />
          </mxGeometry>
        </mxCell>
        <mxCell id="VwtRh0t1i1bTmYYpyvFK-1" value="Bill" style="swimlane;whiteSpace=wrap;html=1;" vertex="1" parent="1">
          <mxGeometry x="2871" y="969" width="200" height="200" as="geometry" />
        </mxCell>
        <mxCell id="NrehxM2VAJIx9OM1hYtv-5" value="BillAmount : double" style="text;html=1;strokeColor=none;fillColor=none;align=center;verticalAlign=middle;whiteSpace=wrap;rounded=0;" vertex="1" parent="VwtRh0t1i1bTmYYpyvFK-1">
          <mxGeometry x="41.5" y="49" width="117" height="30" as="geometry" />
        </mxCell>
        <mxCell id="NrehxM2VAJIx9OM1hYtv-6" value="BillDueDate : int" style="text;html=1;strokeColor=none;fillColor=none;align=center;verticalAlign=middle;whiteSpace=wrap;rounded=0;" vertex="1" parent="VwtRh0t1i1bTmYYpyvFK-1">
          <mxGeometry x="33.5" y="89" width="133" height="30" as="geometry" />
        </mxCell>
        <mxCell id="NrehxM2VAJIx9OM1hYtv-7" value="BillingUnit : String" style="text;html=1;strokeColor=none;fillColor=none;align=center;verticalAlign=middle;whiteSpace=wrap;rounded=0;" vertex="1" parent="VwtRh0t1i1bTmYYpyvFK-1">
          <mxGeometry x="41.5" y="131" width="118" height="30" as="geometry" />
        </mxCell>
        <mxCell id="4yZ3yuTvWRiuQ98onb3q-1" value="GasBill" style="swimlane;whiteSpace=wrap;html=1;" vertex="1" parent="1">
          <mxGeometry x="2642" y="1272" width="200" height="200" as="geometry" />
        </mxCell>
        <mxCell id="T3Cea_eFd7PgpIz3BMwD-1" value="ElictricityBill" style="swimlane;whiteSpace=wrap;html=1;" vertex="1" parent="1">
          <mxGeometry x="2871" y="1275" width="200" height="200" as="geometry" />
        </mxCell>
        <mxCell id="NrehxM2VAJIx9OM1hYtv-1" value="WaterBill" style="swimlane;whiteSpace=wrap;html=1;" vertex="1" parent="1">
          <mxGeometry x="3164" y="1275" width="200" height="200" as="geometry" />
        </mxCell>
        <mxCell id="NrehxM2VAJIx9OM1hYtv-2" value="Extends" style="endArrow=block;endSize=16;endFill=0;html=1;rounded=0;exitX=0.5;exitY=0;exitDx=0;exitDy=0;entryX=0.5;entryY=1;entryDx=0;entryDy=0;" edge="1" parent="1" source="4yZ3yuTvWRiuQ98onb3q-1" target="VwtRh0t1i1bTmYYpyvFK-1">
          <mxGeometry width="160" relative="1" as="geometry">
            <mxPoint x="2790" y="1240" as="sourcePoint" />
            <mxPoint x="2950" y="1240" as="targetPoint" />
          </mxGeometry>
        </mxCell>
        <mxCell id="NrehxM2VAJIx9OM1hYtv-3" value="Extends" style="endArrow=block;endSize=16;endFill=0;html=1;rounded=0;exitX=0.5;exitY=0;exitDx=0;exitDy=0;" edge="1" parent="1" source="T3Cea_eFd7PgpIz3BMwD-1">
          <mxGeometry width="160" relative="1" as="geometry">
            <mxPoint x="2790" y="1240" as="sourcePoint" />
            <mxPoint x="2968" y="1174" as="targetPoint" />
          </mxGeometry>
        </mxCell>
        <mxCell id="NrehxM2VAJIx9OM1hYtv-4" value="Extends" style="endArrow=block;endSize=16;endFill=0;html=1;rounded=0;exitX=0.5;exitY=0;exitDx=0;exitDy=0;" edge="1" parent="1" source="NrehxM2VAJIx9OM1hYtv-1">
          <mxGeometry width="160" relative="1" as="geometry">
            <mxPoint x="2790" y="1240" as="sourcePoint" />
            <mxPoint x="2975" y="1172" as="targetPoint" />
          </mxGeometry>
        </mxCell>
        <mxCell id="rqNcqH8hLblvJnbbaKmj-1" value="Account" style="swimlane;whiteSpace=wrap;html=1;" vertex="1" parent="1">
          <mxGeometry x="3031" y="194" width="200" height="220" as="geometry" />
        </mxCell>
        <mxCell id="pwCaKs0VaSIQPGfBez5v-1" value="BankAccount" style="swimlane;whiteSpace=wrap;html=1;" vertex="1" parent="1">
          <mxGeometry x="2484" y="542" width="460" height="200" as="geometry" />
        </mxCell>
        <mxCell id="pwCaKs0VaSIQPGfBez5v-2" value="BankAccountBalance : double" style="text;align=left;verticalAlign=top;spacingLeft=4;spacingRight=4;overflow=hidden;rotatable=0;points=[[0,0.5],[1,0.5]];portConstraint=eastwest;rounded=0;shadow=0;html=0;" vertex="1" parent="pwCaKs0VaSIQPGfBez5v-1">
          <mxGeometry x="20" y="64" width="300" height="26" as="geometry" />
        </mxCell>
        <mxCell id="pwCaKs0VaSIQPGfBez5v-3" value="BankAccountType : Bank. which bank" style="text;html=1;strokeColor=none;fillColor=none;align=center;verticalAlign=middle;whiteSpace=wrap;rounded=0;" vertex="1" parent="pwCaKs0VaSIQPGfBez5v-1">
          <mxGeometry x="20" y="30" width="120" height="30" as="geometry" />
        </mxCell>
        <mxCell id="pwCaKs0VaSIQPGfBez5v-4" value="BankTransactionHistory : TransactionType []" style="text;html=1;strokeColor=none;fillColor=none;align=center;verticalAlign=middle;whiteSpace=wrap;rounded=0;" vertex="1" parent="pwCaKs0VaSIQPGfBez5v-1">
          <mxGeometry y="120" width="230" height="30" as="geometry" />
        </mxCell>
        <mxCell id="pwCaKs0VaSIQPGfBez5v-5" value="BankPIN : int" style="text;html=1;strokeColor=none;fillColor=none;align=center;verticalAlign=middle;whiteSpace=wrap;rounded=0;" vertex="1" parent="pwCaKs0VaSIQPGfBez5v-1">
          <mxGeometry x="30" y="90" width="90" height="30" as="geometry" />
        </mxCell>
        <mxCell id="pwCaKs0VaSIQPGfBez5v-6" value="BankLinkedServices : Services [ ] //wallets or credit cards" style="text;html=1;strokeColor=none;fillColor=none;align=center;verticalAlign=middle;whiteSpace=wrap;rounded=0;" vertex="1" parent="pwCaKs0VaSIQPGfBez5v-1">
          <mxGeometry x="10" y="150" width="160" height="30" as="geometry" />
        </mxCell>
        <mxCell id="pwCaKs0VaSIQPGfBez5v-7" value="BankAccountHolderName : String" style="text;html=1;strokeColor=none;fillColor=none;align=center;verticalAlign=middle;whiteSpace=wrap;rounded=0;" vertex="1" parent="pwCaKs0VaSIQPGfBez5v-1">
          <mxGeometry x="160" y="34" width="210" height="30" as="geometry" />
        </mxCell>
        <mxCell id="pwCaKs0VaSIQPGfBez5v-8" value="BankAccountHolderPhoneNumber : int" style="text;html=1;strokeColor=none;fillColor=none;align=center;verticalAlign=middle;whiteSpace=wrap;rounded=0;" vertex="1" parent="pwCaKs0VaSIQPGfBez5v-1">
          <mxGeometry x="130" y="85" width="240" height="30" as="geometry" />
        </mxCell>
        <mxCell id="PWxJ77BrBYYfRY9aUFjk-1" value="WalletAccount" style="swimlane;whiteSpace=wrap;html=1;" vertex="1" parent="1">
          <mxGeometry x="3308" y="542" width="280" height="200" as="geometry" />
        </mxCell>
        <mxCell id="PWxJ77BrBYYfRY9aUFjk-2" value="WalletAccountType : WalletProvider" style="text;html=1;strokeColor=none;fillColor=none;align=center;verticalAlign=middle;whiteSpace=wrap;rounded=0;" vertex="1" parent="PWxJ77BrBYYfRY9aUFjk-1">
          <mxGeometry x="35" y="40" width="210" height="30" as="geometry" />
        </mxCell>
        <mxCell id="PWxJ77BrBYYfRY9aUFjk-3" value="WalletAccountHolderName : String" style="text;html=1;strokeColor=none;fillColor=none;align=center;verticalAlign=middle;whiteSpace=wrap;rounded=0;" vertex="1" parent="PWxJ77BrBYYfRY9aUFjk-1">
          <mxGeometry x="20" y="85" width="190" height="30" as="geometry" />
        </mxCell>
        <mxCell id="PWxJ77BrBYYfRY9aUFjk-4" value="WalletAccountHolderPhoneNumber : int" style="text;html=1;strokeColor=none;fillColor=none;align=center;verticalAlign=middle;whiteSpace=wrap;rounded=0;" vertex="1" parent="PWxJ77BrBYYfRY9aUFjk-1">
          <mxGeometry x="5" y="115" width="220" height="30" as="geometry" />
        </mxCell>
        <mxCell id="PWxJ77BrBYYfRY9aUFjk-5" value="WalletAccountBalance : double" style="text;html=1;strokeColor=none;fillColor=none;align=center;verticalAlign=middle;whiteSpace=wrap;rounded=0;" vertex="1" parent="PWxJ77BrBYYfRY9aUFjk-1">
          <mxGeometry y="145" width="180" height="30" as="geometry" />
        </mxCell>
        <mxCell id="PWxJ77BrBYYfRY9aUFjk-6" value="WalletTransactionHistory : TransactionType []" style="text;html=1;strokeColor=none;fillColor=none;align=center;verticalAlign=middle;whiteSpace=wrap;rounded=0;" vertex="1" parent="PWxJ77BrBYYfRY9aUFjk-1">
          <mxGeometry x="5" y="170" width="250" height="30" as="geometry" />
        </mxCell>
        <mxCell id="PWxJ77BrBYYfRY9aUFjk-7" value="WalletPIN : int" style="text;html=1;strokeColor=none;fillColor=none;align=center;verticalAlign=middle;whiteSpace=wrap;rounded=0;" vertex="1" parent="PWxJ77BrBYYfRY9aUFjk-1">
          <mxGeometry x="35" y="20" width="90" height="30" as="geometry" />
        </mxCell>
        <mxCell id="PWxJ77BrBYYfRY9aUFjk-8" value="WalletLinkedServices : Services []" style="text;html=1;strokeColor=none;fillColor=none;align=center;verticalAlign=middle;whiteSpace=wrap;rounded=0;" vertex="1" parent="PWxJ77BrBYYfRY9aUFjk-1">
          <mxGeometry x="15" y="70" width="210" height="30" as="geometry" />
        </mxCell>
        <mxCell id="PWxJ77BrBYYfRY9aUFjk-9" value="Extends" style="endArrow=block;endSize=16;endFill=0;html=1;rounded=0;exitX=0.5;exitY=0;exitDx=0;exitDy=0;entryX=0.5;entryY=1;entryDx=0;entryDy=0;" edge="1" parent="1" source="pwCaKs0VaSIQPGfBez5v-1" target="rqNcqH8hLblvJnbbaKmj-1">
          <mxGeometry width="160" relative="1" as="geometry">
            <mxPoint x="3033" y="563" as="sourcePoint" />
            <mxPoint x="3193" y="563" as="targetPoint" />
          </mxGeometry>
        </mxCell>
        <mxCell id="PWxJ77BrBYYfRY9aUFjk-10" value="Extends" style="endArrow=block;endSize=16;endFill=0;html=1;rounded=0;exitX=0.5;exitY=0;exitDx=0;exitDy=0;" edge="1" parent="1" source="PWxJ77BrBYYfRY9aUFjk-1">
          <mxGeometry width="160" relative="1" as="geometry">
            <mxPoint x="3033" y="563" as="sourcePoint" />
            <mxPoint x="3133" y="415" as="targetPoint" />
          </mxGeometry>
        </mxCell>
        <mxCell id="PWxJ77BrBYYfRY9aUFjk-11" value="Bank" style="swimlane;whiteSpace=wrap;html=1;" vertex="1" parent="1">
          <mxGeometry x="2481" y="-318" width="220" height="200" as="geometry" />
        </mxCell>
        <mxCell id="PWxJ77BrBYYfRY9aUFjk-20" value="BankName : String" style="text;html=1;strokeColor=none;fillColor=none;align=center;verticalAlign=middle;whiteSpace=wrap;rounded=0;" vertex="1" parent="PWxJ77BrBYYfRY9aUFjk-11">
          <mxGeometry x="44" y="43" width="112" height="30" as="geometry" />
        </mxCell>
        <mxCell id="PWxJ77BrBYYfRY9aUFjk-21" value="bankDB : BankAccount []" style="text;html=1;strokeColor=none;fillColor=none;align=center;verticalAlign=middle;whiteSpace=wrap;rounded=0;" vertex="1" parent="PWxJ77BrBYYfRY9aUFjk-11">
          <mxGeometry x="25" y="108" width="150" height="30" as="geometry" />
        </mxCell>
        <mxCell id="0vDc6a730J-DasmxMAeY-11" value="void createAccount()" style="text;html=1;strokeColor=none;fillColor=none;align=center;verticalAlign=middle;whiteSpace=wrap;rounded=0;" vertex="1" parent="PWxJ77BrBYYfRY9aUFjk-11">
          <mxGeometry x="37" y="146" width="133" height="30" as="geometry" />
        </mxCell>
        <mxCell id="KsdIsXIeYY-TfjQH6sST-6" value="obj : BankAPI" style="text;html=1;strokeColor=none;fillColor=none;align=center;verticalAlign=middle;whiteSpace=wrap;rounded=0;" vertex="1" parent="PWxJ77BrBYYfRY9aUFjk-11">
          <mxGeometry x="52" y="68" width="96" height="30" as="geometry" />
        </mxCell>
        <mxCell id="PWxJ77BrBYYfRY9aUFjk-16" value="NBK" style="swimlane;whiteSpace=wrap;html=1;" vertex="1" parent="1">
          <mxGeometry x="2281" y="-68" width="225" height="200" as="geometry" />
        </mxCell>
        <mxCell id="PWxJ77BrBYYfRY9aUFjk-17" value="CIB" style="swimlane;whiteSpace=wrap;html=1;" vertex="1" parent="1">
          <mxGeometry x="2681" y="-68" width="200" height="200" as="geometry" />
        </mxCell>
        <mxCell id="PWxJ77BrBYYfRY9aUFjk-18" value="Extends" style="endArrow=block;endSize=16;endFill=0;html=1;rounded=0;exitX=0.5;exitY=0;exitDx=0;exitDy=0;entryX=0.5;entryY=1;entryDx=0;entryDy=0;" edge="1" parent="1" source="PWxJ77BrBYYfRY9aUFjk-16" target="PWxJ77BrBYYfRY9aUFjk-11">
          <mxGeometry width="160" relative="1" as="geometry">
            <mxPoint x="2515" y="-13" as="sourcePoint" />
            <mxPoint x="2675" y="-13" as="targetPoint" />
          </mxGeometry>
        </mxCell>
        <mxCell id="PWxJ77BrBYYfRY9aUFjk-19" value="Extends" style="endArrow=block;endSize=16;endFill=0;html=1;rounded=0;exitX=0.5;exitY=0;exitDx=0;exitDy=0;" edge="1" parent="1" source="PWxJ77BrBYYfRY9aUFjk-17">
          <mxGeometry width="160" relative="1" as="geometry">
            <mxPoint x="2515" y="-13" as="sourcePoint" />
            <mxPoint x="2585" y="-119" as="targetPoint" />
          </mxGeometry>
        </mxCell>
        <mxCell id="0vDc6a730J-DasmxMAeY-5" value="InstaPayDB" style="swimlane;whiteSpace=wrap;html=1;" vertex="1" parent="1">
          <mxGeometry x="515" y="-6" width="200" height="200" as="geometry" />
        </mxCell>
        <mxCell id="0vDc6a730J-DasmxMAeY-6" value="systemDB : User []" style="text;html=1;strokeColor=none;fillColor=none;align=center;verticalAlign=middle;whiteSpace=wrap;rounded=0;" vertex="1" parent="0vDc6a730J-DasmxMAeY-5">
          <mxGeometry x="42" y="45" width="122" height="30" as="geometry" />
        </mxCell>
        <mxCell id="0vDc6a730J-DasmxMAeY-9" value="" style="endArrow=diamondThin;endFill=0;endSize=24;html=1;rounded=0;" edge="1" parent="1">
          <mxGeometry width="160" relative="1" as="geometry">
            <mxPoint x="513" y="-1" as="sourcePoint" />
            <mxPoint x="393" y="223" as="targetPoint" />
            <Array as="points">
              <mxPoint x="393" y="-1" />
            </Array>
          </mxGeometry>
        </mxCell>
        <mxCell id="0vDc6a730J-DasmxMAeY-10" value="" style="endArrow=diamondThin;endFill=0;endSize=24;html=1;rounded=0;" edge="1" parent="1">
          <mxGeometry width="160" relative="1" as="geometry">
            <mxPoint x="723" as="sourcePoint" />
            <mxPoint x="847" y="207" as="targetPoint" />
            <Array as="points">
              <mxPoint x="847" />
            </Array>
          </mxGeometry>
        </mxCell>
        <mxCell id="0vDc6a730J-DasmxMAeY-21" value="BankAPI" style="swimlane;whiteSpace=wrap;html=1;" vertex="1" parent="1">
          <mxGeometry x="1991" y="-318" width="237" height="200" as="geometry" />
        </mxCell>
        <mxCell id="0vDc6a730J-DasmxMAeY-22" value="boolean checkRegisteredUser(User obj)" style="text;html=1;strokeColor=none;fillColor=none;align=center;verticalAlign=middle;whiteSpace=wrap;rounded=0;" vertex="1" parent="0vDc6a730J-DasmxMAeY-21">
          <mxGeometry x="4" y="48" width="233" height="30" as="geometry" />
        </mxCell>
        <mxCell id="0vDc6a730J-DasmxMAeY-27" value="" style="endArrow=diamondThin;endFill=0;endSize=24;html=1;rounded=0;" edge="1" parent="1">
          <mxGeometry width="160" relative="1" as="geometry">
            <mxPoint x="2870" y="985" as="sourcePoint" />
            <mxPoint x="2456" y="1273" as="targetPoint" />
            <Array as="points">
              <mxPoint x="2456" y="985" />
            </Array>
          </mxGeometry>
        </mxCell>
        <mxCell id="0vDc6a730J-DasmxMAeY-28" value="1" style="text;html=1;strokeColor=none;fillColor=none;align=center;verticalAlign=middle;whiteSpace=wrap;rounded=0;" vertex="1" parent="1">
          <mxGeometry x="2405" y="1211" width="60" height="30" as="geometry" />
        </mxCell>
        <mxCell id="0vDc6a730J-DasmxMAeY-29" value="*" style="text;html=1;strokeColor=none;fillColor=none;align=center;verticalAlign=middle;whiteSpace=wrap;rounded=0;fontSize=22;" vertex="1" parent="1">
          <mxGeometry x="2811" y="959" width="60" height="30" as="geometry" />
        </mxCell>
        <mxCell id="0vDc6a730J-DasmxMAeY-30" value="walletProvider" style="swimlane;whiteSpace=wrap;html=1;" vertex="1" parent="1">
          <mxGeometry x="3845" y="211" width="230" height="200" as="geometry" />
        </mxCell>
        <mxCell id="KsdIsXIeYY-TfjQH6sST-15" value="&lt;i&gt;void createDigitalWallet(DigitalWallet obj)&lt;/i&gt;" style="text;html=1;strokeColor=none;fillColor=none;align=center;verticalAlign=middle;whiteSpace=wrap;rounded=0;" vertex="1" parent="0vDc6a730J-DasmxMAeY-30">
          <mxGeometry x="-12" y="86" width="242" height="30" as="geometry" />
        </mxCell>
        <mxCell id="0vDc6a730J-DasmxMAeY-31" value="DigitalWallet" style="swimlane;whiteSpace=wrap;html=1;" vertex="1" parent="1">
          <mxGeometry x="4415" y="218" width="209" height="200" as="geometry" />
        </mxCell>
        <mxCell id="KsdIsXIeYY-TfjQH6sST-12" value="&lt;i&gt;void transferMoney(double Money)&lt;/i&gt;" style="text;html=1;strokeColor=none;fillColor=none;align=center;verticalAlign=middle;whiteSpace=wrap;rounded=0;" vertex="1" parent="0vDc6a730J-DasmxMAeY-31">
          <mxGeometry x="-9" y="71" width="218" height="30" as="geometry" />
        </mxCell>
        <mxCell id="wwk4z0RCsSvtbUdGN1Tv-1" value="&lt;span style=&quot;font-weight: normal;&quot;&gt;VodafoneCash&lt;/span&gt;" style="swimlane;whiteSpace=wrap;html=1;" vertex="1" parent="1">
          <mxGeometry x="4255" y="517" width="215" height="200" as="geometry" />
        </mxCell>
        <mxCell id="KsdIsXIeYY-TfjQH6sST-20" value="&lt;span style=&quot;border-color: var(--border-color);&quot;&gt;void transferMoney(double Money)&lt;/span&gt;" style="text;html=1;strokeColor=none;fillColor=none;align=center;verticalAlign=middle;whiteSpace=wrap;rounded=0;fontStyle=0" vertex="1" parent="wwk4z0RCsSvtbUdGN1Tv-1">
          <mxGeometry x="-7" y="75" width="222" height="30" as="geometry" />
        </mxCell>
        <mxCell id="ExZMSqg162PU4K9TUYbY-1" value="&lt;span style=&quot;font-weight: normal;&quot;&gt;OrangeCash&lt;/span&gt;" style="swimlane;whiteSpace=wrap;html=1;" vertex="1" parent="1">
          <mxGeometry x="4615" y="517" width="201.5" height="200" as="geometry" />
        </mxCell>
        <mxCell id="KsdIsXIeYY-TfjQH6sST-21" value="void transferMoney(double Money)" style="text;html=1;strokeColor=none;fillColor=none;align=center;verticalAlign=middle;whiteSpace=wrap;rounded=0;" vertex="1" parent="ExZMSqg162PU4K9TUYbY-1">
          <mxGeometry x="-1.5" y="77" width="203" height="30" as="geometry" />
        </mxCell>
        <mxCell id="Z-mpOZtylR4ljjKcbeOT-1" value="Extends" style="endArrow=block;endSize=16;endFill=0;html=1;rounded=0;exitX=0.5;exitY=0;exitDx=0;exitDy=0;entryX=0.5;entryY=1;entryDx=0;entryDy=0;" edge="1" parent="1" source="wwk4z0RCsSvtbUdGN1Tv-1" target="0vDc6a730J-DasmxMAeY-31">
          <mxGeometry width="160" relative="1" as="geometry">
            <mxPoint x="4515" y="309" as="sourcePoint" />
            <mxPoint x="4675" y="309" as="targetPoint" />
          </mxGeometry>
        </mxCell>
        <mxCell id="Z-mpOZtylR4ljjKcbeOT-2" value="Extends" style="endArrow=block;endSize=16;endFill=0;html=1;rounded=0;exitX=0.5;exitY=0;exitDx=0;exitDy=0;" edge="1" parent="1" source="ExZMSqg162PU4K9TUYbY-1">
          <mxGeometry width="160" relative="1" as="geometry">
            <mxPoint x="4515" y="309" as="sourcePoint" />
            <mxPoint x="4518" y="418" as="targetPoint" />
          </mxGeometry>
        </mxCell>
        <mxCell id="hr0TL3MvRepCY52AbZTG-1" value="&lt;span style=&quot;font-weight: normal;&quot;&gt;Vodafone&lt;/span&gt;" style="swimlane;whiteSpace=wrap;html=1;startSize=20;" vertex="1" parent="1">
          <mxGeometry x="3689" y="532" width="246" height="200" as="geometry" />
        </mxCell>
        <mxCell id="KsdIsXIeYY-TfjQH6sST-17" value="&lt;span style=&quot;border-color: var(--border-color);&quot;&gt;void createDigitalWallet(DigitalWallet obj)&lt;/span&gt;" style="text;html=1;strokeColor=none;fillColor=none;align=center;verticalAlign=middle;whiteSpace=wrap;rounded=0;fontStyle=0" vertex="1" parent="hr0TL3MvRepCY52AbZTG-1">
          <mxGeometry x="6" y="76" width="240" height="30" as="geometry" />
        </mxCell>
        <mxCell id="KsdIsXIeYY-TfjQH6sST-1" value="&lt;span style=&quot;font-weight: normal;&quot;&gt;Orange&lt;/span&gt;" style="swimlane;whiteSpace=wrap;html=1;" vertex="1" parent="1">
          <mxGeometry x="3965" y="532" width="231.5" height="200" as="geometry" />
        </mxCell>
        <mxCell id="KsdIsXIeYY-TfjQH6sST-18" value="void createDigitalWallet(DigitalWallet obj)" style="text;html=1;strokeColor=none;fillColor=none;align=center;verticalAlign=middle;whiteSpace=wrap;rounded=0;" vertex="1" parent="KsdIsXIeYY-TfjQH6sST-1">
          <mxGeometry x="-9" y="84" width="263" height="30" as="geometry" />
        </mxCell>
        <mxCell id="KsdIsXIeYY-TfjQH6sST-2" value="Extends" style="endArrow=block;endSize=16;endFill=0;html=1;rounded=0;exitX=0.5;exitY=0;exitDx=0;exitDy=0;entryX=0.5;entryY=1;entryDx=0;entryDy=0;" edge="1" parent="1" source="hr0TL3MvRepCY52AbZTG-1" target="0vDc6a730J-DasmxMAeY-30">
          <mxGeometry width="160" relative="1" as="geometry">
            <mxPoint x="4176" y="316" as="sourcePoint" />
            <mxPoint x="4336" y="316" as="targetPoint" />
          </mxGeometry>
        </mxCell>
        <mxCell id="KsdIsXIeYY-TfjQH6sST-3" value="Extends" style="endArrow=block;endSize=16;endFill=0;html=1;rounded=0;exitX=0.5;exitY=0;exitDx=0;exitDy=0;" edge="1" parent="1" source="KsdIsXIeYY-TfjQH6sST-1">
          <mxGeometry width="160" relative="1" as="geometry">
            <mxPoint x="4176" y="316" as="sourcePoint" />
            <mxPoint x="3956" y="416" as="targetPoint" />
          </mxGeometry>
        </mxCell>
        <mxCell id="KsdIsXIeYY-TfjQH6sST-4" value="Use" style="endArrow=open;endSize=12;dashed=1;html=1;rounded=0;entryX=0.007;entryY=0.067;entryDx=0;entryDy=0;entryPerimeter=0;" edge="1" parent="1" target="0vDc6a730J-DasmxMAeY-31">
          <mxGeometry width="160" relative="1" as="geometry">
            <mxPoint x="4045" y="229" as="sourcePoint" />
            <mxPoint x="4205" y="229" as="targetPoint" />
          </mxGeometry>
        </mxCell>
        <mxCell id="KsdIsXIeYY-TfjQH6sST-5" value="//factory method" style="text;html=1;strokeColor=none;fillColor=none;align=center;verticalAlign=middle;whiteSpace=wrap;rounded=0;" vertex="1" parent="1">
          <mxGeometry x="4313" y="164" width="60" height="30" as="geometry" />
        </mxCell>
        <mxCell id="KsdIsXIeYY-TfjQH6sST-8" value="" style="endArrow=diamondThin;endFill=0;endSize=24;html=1;rounded=0;" edge="1" parent="1">
          <mxGeometry width="160" relative="1" as="geometry">
            <mxPoint x="2230" y="-306" as="sourcePoint" />
            <mxPoint x="2480" y="-306" as="targetPoint" />
          </mxGeometry>
        </mxCell>
        <mxCell id="KsdIsXIeYY-TfjQH6sST-10" value="&lt;i&gt;&amp;lt;&amp;lt;Interface&amp;gt;&amp;gt;&lt;/i&gt;" style="text;html=1;strokeColor=none;fillColor=none;align=center;verticalAlign=middle;whiteSpace=wrap;rounded=0;" vertex="1" parent="1">
          <mxGeometry x="1632" y="925" width="60" height="30" as="geometry" />
        </mxCell>
        <mxCell id="KsdIsXIeYY-TfjQH6sST-11" value="Use" style="endArrow=open;endSize=12;dashed=1;html=1;rounded=0;exitX=0;exitY=0;exitDx=0;exitDy=0;entryX=0.002;entryY=0.09;entryDx=0;entryDy=0;entryPerimeter=0;" edge="1" parent="1" target="SpfyjW3OqlmxruHMp7XD-1">
          <mxGeometry width="160" relative="1" as="geometry">
            <mxPoint x="1654" y="183" as="sourcePoint" />
            <mxPoint x="1287" y="995" as="targetPoint" />
            <Array as="points">
              <mxPoint x="1291" y="187" />
              <mxPoint x="1291" y="987" />
            </Array>
          </mxGeometry>
        </mxCell>
        <mxCell id="KsdIsXIeYY-TfjQH6sST-13" value="&amp;lt;&amp;lt;Abstract&amp;gt;&amp;gt;" style="text;html=1;strokeColor=none;fillColor=none;align=center;verticalAlign=middle;whiteSpace=wrap;rounded=0;" vertex="1" parent="1">
          <mxGeometry x="3910" y="155" width="60" height="30" as="geometry" />
        </mxCell>
        <mxCell id="KsdIsXIeYY-TfjQH6sST-14" value="&amp;lt;&amp;lt;Abstract&amp;gt;&amp;gt;" style="text;html=1;strokeColor=none;fillColor=none;align=center;verticalAlign=middle;whiteSpace=wrap;rounded=0;" vertex="1" parent="1">
          <mxGeometry x="4502" y="155" width="60" height="30" as="geometry" />
        </mxCell>
      </root>
    </mxGraphModel>
  </diagram>
</mxfile>
